<svg width="1879" height="1899" viewBox="0 0 1879 1899" fill="none" xmlns="http://www.w3.org/2000/svg">
<g filter="url(#filter0_d_120_4697)">
<path d="M1689.26 582.122C1700.83 622.954 1661.35 709.146 1662.7 751.895C1672.14 1049.27 1622.64 1297.65 1221.73 1498.87C884.717 1649.16 426.24 1612.31 279.76 1383.49C255.892 1346.21 191.259 1343.17 178.354 1297.65C167.854 1260.61 207.543 1184.05 205.478 1145.39C189.434 844.929 312.209 625.248 683.2 391.885C1072.14 218.358 1439.53 272.678 1586.67 499.944C1611.13 537.725 1676.13 535.813 1689.26 582.122Z" fill="#FFE606"/>
<path d="M1659.94 590.001C1671.46 630.644 1629.01 718.716 1628.92 761.624C1628.37 1031.66 1580.76 1284.02 1197.8 1474.93C871.314 1620.53 431.599 1563.52 296.333 1352.2C275.551 1319.73 211.496 1323.5 200.305 1284.02C190.532 1249.55 232.834 1174.17 231.464 1137.99C221.053 863.045 445.008 551.79 777.858 403.354C1103.76 258.018 1427.26 316.389 1562.97 526.771C1584.1 559.534 1648.61 550.06 1659.94 590.001Z" fill="#FFFEFE"/>
<path d="M1550.63 663.95C1627.21 934.066 1469.23 1250.06 1126 1403.13C782.764 1556.2 384.256 1488.37 307.676 1218.25C231.095 948.137 447.26 605.08 790.493 452.013C1133.73 298.946 1474.05 393.834 1550.63 663.95Z" fill="#FFE860"/>
<path d="M177.487 1287.04C175.514 1280.08 176.505 1270.04 179.916 1257.29C183.278 1244.72 188.684 1230.6 194.508 1216.05C195.597 1213.32 196.702 1210.58 197.809 1207.84C202.551 1196.08 207.327 1184.23 211.06 1173.31C215.612 1159.97 218.992 1146.98 218.532 1136.45C206.216 854.957 345.673 536.96 684.859 385.698C849.378 312.33 1035.88 284.769 1198.83 301.998C1361.95 319.245 1500.4 381.239 1570.06 485.702C1576.66 495.595 1587.18 502.986 1598.75 509.2C1607.95 514.145 1618.27 518.573 1628.41 522.922C1631.04 524.05 1633.66 525.173 1636.24 526.298C1648.95 531.836 1660.89 537.462 1670.4 544.271C1679.9 551.087 1686.4 558.697 1689.01 567.873C1691.32 576.044 1690.85 589.029 1688.29 605.537C1685.76 621.8 1681.38 640.493 1676.62 659.506C1675.18 665.249 1673.7 671.032 1672.24 676.776C1668.89 689.911 1665.59 702.844 1662.9 714.645C1659.08 731.474 1656.28 746.886 1656.52 757.941C1659.49 897.725 1635.37 1045.81 1568.86 1177.45C1502.42 1308.95 1393.5 1424.47 1226.11 1499.12C1061.19 1572.67 865.553 1599.14 693.602 1580.54C521.417 1561.92 374.308 1498.27 305.019 1393.16C298.687 1383.55 287.856 1374.68 275.65 1366.26C266.601 1360.02 256.408 1353.77 246.191 1347.51C242.545 1345.27 238.897 1343.03 235.296 1340.8C221.474 1332.2 208.266 1323.52 197.788 1314.42C187.206 1305.22 180.068 1296.14 177.487 1287.04Z" stroke="black" stroke-width="11.9674"/>
<path d="M396 1265.52C346.683 1302.03 423.58 1404.46 423.58 1404.46L274.834 1233.93L291.649 1058.51C292.507 1037.77 295.142 1022.07 295.142 1022.07L291.649 1058.51C289.875 1101.41 295.7 1165.88 348.131 1157.82C425.919 1145.85 1351.48 712.424 1425.2 631.254C1481.13 577.026 1449.88 492.144 1449.88 492.144L1596.33 620.109L1565.12 829.369C1565.12 829.369 1578.05 686.367 1502.98 703.058C1427.92 719.749 396 1265.52 396 1265.52Z" fill="#FFFDF0"/>
<path d="M330.185 1145.85C276.968 1115.77 280.466 1007.88 310.512 934.027C340.558 860.171 365.916 819.112 407.306 755.241C448.697 691.37 550.4 584.919 620.173 546.901C689.945 508.882 897.798 397.868 1050.64 397.869C1203.47 397.87 1305.63 399.011 1366.92 442.23C1428.22 485.448 1510.98 554.295 1479.05 595.355C1447.12 636.415 497.729 1086.02 497.729 1086.02M1389.3 755.241C1299.84 798.227 1145.55 883.597 1078.15 912.491C1078.15 912.491 660.381 1108.03 620.173 1133.89C579.965 1159.74 409.303 1207.47 378.055 1283.48C346.807 1359.48 521.371 1446.35 554.484 1463.08C587.596 1479.81 717.915 1521.99 864.556 1482.46C1011.2 1442.92 1240.73 1340.88 1332.07 1244.01C1423.41 1147.14 1507.11 1019.85 1531.95 965.102C1556.78 910.356 1563.88 800.862 1562.7 743.075" stroke="black" stroke-width="11.9674" stroke-linecap="round"/>
<path d="M841.626 1128.76C852.229 1080.41 852.066 1014.2 874.675 1024.75C897.284 1035.31 901.845 1095.13 914.448 1126.65C927.051 1158.16 955.739 1197.66 955.292 1224.02C954.846 1250.39 948.485 1281.73 919.053 1282.29C889.62 1282.86 843.179 1235 837.559 1214.63C831.939 1194.27 831.023 1177.11 841.626 1128.76Z" fill="#FBFDF8"/>
<path d="M1098.95 699.814C1082.6 745.708 1072.9 810.717 1054.93 797.024C1036.96 783.331 1041.91 723.943 1035.71 691.149C1029.5 658.355 1010.58 615.359 1014.89 589.547C1019.19 563.736 1029.35 533.913 1054.86 537.701C1080.38 541.489 1113.4 595.314 1115.22 616.131C1117.05 636.948 1115.3 653.919 1098.95 699.814Z" fill="#FBFDF8"/>
<path d="M734.592 837.254C754.437 880.928 790.522 929.16 771.064 939.266C751.606 949.373 716.324 909.272 691.544 896.181C666.765 883.09 627.887 876.847 613.829 857.238C599.77 837.629 586.596 809.724 604.153 786.12C621.71 762.516 675.909 760.881 690.389 771.327C704.868 781.774 714.747 793.581 734.592 837.254Z" fill="#FBFDF8"/>
<path d="M1075.61 994.136C1038.15 983.087 991.256 955.887 991.977 978.785C992.699 1001.68 1033.75 1029.89 1052.33 1053.13C1070.91 1076.37 1090.34 1116.1 1109.16 1126.51C1127.99 1136.92 1152.12 1144.5 1161.32 1120.54C1170.52 1096.58 1150.48 1038.84 1137.72 1025.9C1124.96 1012.95 1113.07 1005.19 1075.61 994.136Z" fill="#FBFDF8"/>
<path d="M584.958 981.459C627.566 983.364 683.409 998.273 678.354 976.979C673.3 955.684 623.597 938.517 599.147 920.927C574.698 903.338 546.256 870.494 523.933 864.986C501.609 859.478 474.078 857.815 468.589 882.345C463.1 906.875 495.576 956.457 511.803 965.708C528.031 974.96 542.349 979.554 584.958 981.459Z" fill="#FBFDF8"/>
<path d="M725.102 577.799C725.102 579.447 725.102 581.057 725.102 582.041C725.102 582.692 725.102 582.19 725.102 582.121C725.102 582.038 725.102 579.397 725.102 578.119C725.102 575.425 725.102 580.737 725.102 582.841C725.102 585.191 725.102 586.043 725.102 589.323" stroke="#FBFDF8" stroke-width="20.9094" stroke-linecap="round"/>
<path d="M533.613 1319.35C526.316 1319.35 528.047 1319.35 521.663 1319.35" stroke="#FBFDF8" stroke-width="20.9094" stroke-linecap="round"/>
<path d="M545.585 1355.26C550.763 1355.26 553.224 1355.26 557.534 1355.26" stroke="#FBFDF8" stroke-width="20.9094" stroke-linecap="round"/>
<path d="M617.393 1235.58H629.342" stroke="#FBFDF8" stroke-width="20.9094" stroke-linecap="round"/>
<path d="M557.534 1211.64C553.349 1211.64 547.162 1211.64 545.585 1211.64" stroke="#FBFDF8" stroke-width="20.9094" stroke-linecap="round"/>
<path d="M1419.22 888.534C1425.17 888.534 1428.7 888.534 1431.17 888.534" stroke="#FBFDF8" stroke-width="20.9094" stroke-linecap="round"/>
<path d="M1419.19 792.788C1418.45 792.788 1411.94 792.788 1407.24 792.788" stroke="#FBFDF8" stroke-width="20.9094" stroke-linecap="round"/>
<path d="M1239.7 1103.95H1251.65" stroke="#FBFDF8" stroke-width="20.9094" stroke-linecap="round"/>
<path d="M1048.22 445.74C1053.53 445.74 1055.85 449.059 1060.17 457.689" stroke="#FBFDF8" stroke-width="20.9094" stroke-linecap="round"/>
<path d="M1131.99 541.471C1137.48 541.471 1139.51 541.471 1143.94 541.471" stroke="#FBFDF8" stroke-width="20.9094" stroke-linecap="round"/>
<path d="M1215.76 601.296C1215.76 590.286 1215.76 593.382 1215.76 589.347" stroke="#FBFDF8" stroke-width="20.9094" stroke-linecap="round"/>
</g>
<defs>
<filter id="filter0_d_120_4697" x="-74.8897" y="0.407227" width="2028.77" height="2048.97" filterUnits="userSpaceOnUse" color-interpolation-filters="sRGB">
<feFlood flood-opacity="0" result="BackgroundImageFix"/>
<feColorMatrix in="SourceAlpha" type="matrix" values="0 0 0 0 0 0 0 0 0 0 0 0 0 0 0 0 0 0 127 0" result="hardAlpha"/>
<feOffset dy="75.3618"/>
<feGaussianBlur stdDeviation="37.6809"/>
<feComposite in2="hardAlpha" operator="out"/>
<feColorMatrix type="matrix" values="0 0 0 0 0 0 0 0 0 0 0 0 0 0 0 0 0 0 0.25 0"/>
<feBlend mode="normal" in2="BackgroundImageFix" result="effect1_dropShadow_120_4697"/>
<feBlend mode="normal" in="SourceGraphic" in2="effect1_dropShadow_120_4697" result="shape"/>
</filter>
</defs>
</svg>
