<svg width="1080" height="1098" viewBox="0 0 1080 1098" fill="none" xmlns="http://www.w3.org/2000/svg">
<g filter="url(#filter0_d_53_1534)">
<path d="M901.987 308.185C908.023 329.473 887.435 374.409 888.143 396.697C893.063 551.734 867.255 681.228 658.24 786.135C482.535 864.492 243.505 845.278 167.137 725.984C154.694 706.546 120.997 704.959 114.269 681.228C108.795 661.919 129.486 622.002 128.41 601.847C120.045 445.201 184.055 330.669 377.473 209.004C580.25 118.534 771.789 146.855 848.501 265.341C861.254 285.038 895.142 284.042 901.987 308.185Z" fill="#FFE606"/>
<path d="M886.697 312.293C892.704 333.483 870.573 379.399 870.527 401.77C870.239 542.553 845.418 674.126 645.761 773.657C475.544 849.566 246.296 819.842 175.774 709.671C164.94 692.744 131.544 694.706 125.709 674.125C120.615 656.155 142.669 616.855 141.955 597.992C136.527 454.646 253.287 292.372 426.82 214.984C596.729 139.212 765.392 169.644 836.142 279.328C847.16 296.409 880.793 291.47 886.697 312.293Z" fill="#FFFEFE"/>
<path d="M829.711 350.845C869.637 491.671 787.272 656.419 608.325 736.221C429.379 816.023 221.615 780.66 181.689 639.834C141.764 499.007 254.462 320.152 433.409 240.35C612.355 160.548 789.786 210.018 829.711 350.845Z" fill="#FFE860"/>
<path d="M901.844 300.756C903.052 305.016 902.806 311.785 901.47 320.392C900.153 328.871 897.869 338.617 895.387 348.529C894.637 351.523 893.867 354.538 893.103 357.533C891.355 364.381 889.634 371.124 888.235 377.276C886.24 386.05 884.785 394.085 884.907 399.849C886.459 472.726 873.88 549.929 839.204 618.564C804.567 687.122 747.779 747.348 660.511 786.266C574.529 824.61 472.533 838.411 382.885 828.715C293.115 819.006 216.419 785.825 180.295 731.021C176.994 726.013 171.347 721.391 164.983 717.001C160.265 713.747 154.951 710.488 149.625 707.222C147.724 706.057 145.822 704.891 143.945 703.723C136.738 699.241 129.852 694.716 124.39 689.97C118.873 685.177 115.151 680.444 113.806 675.699C112.777 672.07 113.293 666.832 115.072 660.186C116.825 653.635 119.643 646.273 122.679 638.685C123.247 637.265 123.824 635.836 124.401 634.404C126.873 628.274 129.363 622.099 131.309 616.402C133.682 609.451 135.445 602.675 135.204 597.184C128.783 450.428 201.49 284.639 378.327 205.778C464.1 167.527 561.336 153.158 646.288 162.14C731.331 171.132 803.515 203.453 839.833 257.915C843.273 263.073 848.759 266.926 854.787 270.166C859.584 272.744 864.967 275.053 870.252 277.32C871.623 277.908 872.988 278.494 874.334 279.08C880.962 281.968 887.188 284.901 892.142 288.451C897.1 292.004 900.488 295.972 901.844 300.756Z" stroke="black" stroke-width="6.23926"/>
<path d="M227.734 664.482C202.022 683.514 242.113 736.916 242.113 736.916L164.563 648.011L173.33 556.554C173.777 545.738 175.151 537.555 175.151 537.555L173.33 556.554C172.405 578.918 175.442 612.534 202.777 608.329C243.332 602.089 725.881 376.12 764.311 333.801C793.473 305.529 777.182 261.275 777.182 261.275L853.531 327.99L837.26 437.089C837.26 437.089 844.002 362.535 804.866 371.237C765.729 379.938 227.734 664.482 227.734 664.482Z" fill="#FFFDF0"/>
<path d="M193.418 602.089C165.673 586.404 167.497 530.156 183.161 491.651C198.826 453.146 212.046 431.739 233.626 398.44C255.205 365.141 308.228 309.642 344.605 289.821C380.981 270 489.346 212.122 569.029 212.122C648.712 212.123 701.971 212.718 733.927 235.25C765.883 257.782 809.035 293.676 792.388 315.083C775.741 336.489 280.768 570.892 280.768 570.892M745.593 398.44C698.953 420.851 618.516 465.359 583.372 480.423C583.372 480.423 365.567 582.371 344.605 595.849C323.642 609.328 234.666 634.215 218.375 673.84C202.084 713.466 293.094 758.756 310.358 767.477C327.621 776.197 395.563 798.191 472.016 777.577C548.468 756.964 668.136 703.765 715.756 653.262C763.376 602.758 807.017 536.394 819.965 507.852C832.913 479.31 836.611 422.225 835.995 392.097" stroke="black" stroke-width="6.23926" stroke-linecap="round"/>
<path d="M460.068 593.179C465.596 567.971 465.511 533.452 477.298 538.954C489.086 544.456 491.464 575.644 498.034 592.075C504.605 608.507 519.561 629.098 519.329 642.843C519.096 656.588 515.78 672.928 500.435 673.222C485.09 673.516 460.878 648.565 457.948 637.948C455.018 627.331 454.54 618.388 460.068 593.179Z" fill="#FBFDF8"/>
<path d="M594.211 369.547C585.687 393.474 580.63 427.367 571.262 420.228C561.895 413.089 564.475 382.127 561.24 365.029C558.005 347.932 548.142 325.516 550.386 312.059C552.63 298.602 557.925 283.053 571.228 285.028C584.531 287.003 601.744 315.065 602.698 325.918C603.651 336.771 602.735 345.619 594.211 369.547Z" fill="#FBFDF8"/>
<path d="M404.256 441.198C414.603 463.967 433.416 489.113 423.271 494.383C413.127 499.652 394.732 478.745 381.813 471.92C368.894 465.095 348.625 461.84 341.295 451.617C333.966 441.393 327.098 426.845 336.251 414.539C345.404 402.233 373.661 401.38 381.211 406.827C388.76 412.273 393.91 418.429 404.256 441.198Z" fill="#FBFDF8"/>
<path d="M582.047 522.993C562.519 517.232 538.068 503.051 538.444 514.989C538.82 526.927 560.224 541.631 569.911 553.749C579.597 565.867 589.725 586.577 599.541 592.005C609.357 597.433 621.935 601.386 626.733 588.893C631.53 576.401 621.079 546.299 614.426 539.55C607.774 532.802 601.576 528.753 582.047 522.993Z" fill="#FBFDF8"/>
<path d="M326.25 516.38C348.464 517.373 377.578 525.146 374.943 514.044C372.307 502.942 346.394 493.991 333.647 484.821C320.9 475.651 306.072 458.527 294.434 455.656C282.795 452.784 268.442 451.917 265.58 464.706C262.718 477.495 279.65 503.344 288.11 508.168C296.57 512.991 304.035 515.387 326.25 516.38Z" fill="#FBFDF8"/>
<path d="M399.311 305.935C399.311 306.795 399.311 307.635 399.311 308.149C399.311 308.489 399.311 308.227 399.311 308.191C399.311 308.148 399.311 306.769 399.311 306.102C399.311 304.695 399.311 307.468 399.311 308.567C399.311 309.794 399.311 310.239 399.311 311.951" stroke="#FBFDF8" stroke-width="10.9012" stroke-linecap="round"/>
<path d="M299.482 692.546C295.673 692.546 296.576 692.546 293.243 692.546" stroke="#FBFDF8" stroke-width="10.9012" stroke-linecap="round"/>
<path d="M305.721 711.264C308.425 711.264 309.71 711.264 311.96 711.264" stroke="#FBFDF8" stroke-width="10.9012" stroke-linecap="round"/>
<path d="M343.157 648.872H349.396" stroke="#FBFDF8" stroke-width="10.9012" stroke-linecap="round"/>
<path d="M311.96 636.393C309.775 636.393 306.545 636.393 305.721 636.393" stroke="#FBFDF8" stroke-width="10.9012" stroke-linecap="round"/>
<path d="M761.188 467.933C764.294 467.933 766.14 467.933 767.427 467.933" stroke="#FBFDF8" stroke-width="10.9012" stroke-linecap="round"/>
<path d="M761.187 418.019C760.802 418.019 757.402 418.019 754.948 418.019" stroke="#FBFDF8" stroke-width="10.9012" stroke-linecap="round"/>
<path d="M667.598 580.24H673.838" stroke="#FBFDF8" stroke-width="10.9012" stroke-linecap="round"/>
<path d="M567.771 237.08C570.543 237.08 571.757 238.814 574.01 243.32" stroke="#FBFDF8" stroke-width="10.9012" stroke-linecap="round"/>
<path d="M611.445 286.994C614.31 286.994 615.371 286.994 617.684 286.994" stroke="#FBFDF8" stroke-width="10.9012" stroke-linecap="round"/>
<path d="M655.12 318.19C655.12 312.441 655.12 314.058 655.12 311.951" stroke="#FBFDF8" stroke-width="10.9012" stroke-linecap="round"/>
<path d="M415.487 749.727C415.283 750.491 414.842 750.997 414.164 751.245C413.147 751.618 411.45 752.061 409.072 752.573C406.694 753.084 404.067 753.573 401.193 754.037C398.411 754.533 395.475 755.037 392.384 755.548C389.293 756.059 386.48 756.485 383.944 756.825C381.408 757.165 379.258 757.397 377.494 757.52C375.793 757.783 374.897 757.899 374.803 757.868C374.055 757.617 373.477 756.354 373.068 754.079C372.752 751.834 372.612 748.935 372.647 745.382C372.711 741.72 372.954 737.582 373.375 732.969C373.824 728.248 374.38 723.323 375.04 718.197C375.794 713.101 376.655 707.982 377.625 702.84C378.718 697.621 379.892 692.666 381.149 687.976C383.018 680.996 384.76 675.637 386.372 671.898C388.078 668.19 389.568 665.48 390.842 663.767C392.209 662.085 393.279 661.136 394.05 660.918C394.85 660.592 395.297 660.444 395.391 660.476C396.139 660.726 396.644 661.311 396.907 662.23C397.17 663.15 397.199 663.992 396.995 664.755C396.878 665.191 396.486 665.892 395.82 666.858C395.154 667.824 394.325 669.21 393.331 671.017C392.431 672.855 391.386 675.238 390.194 678.167C389.095 681.127 387.962 684.788 386.793 689.151C385.741 693.077 384.786 697.214 383.927 701.561C383.162 705.94 382.504 710.295 381.955 714.627C381.406 718.959 380.962 723.088 380.623 727.016C380.377 730.974 380.249 734.496 380.237 737.582C380.225 740.667 380.313 743.192 380.5 745.156C380.716 747.011 381.105 748.032 381.666 748.22C381.759 748.251 382.44 748.182 383.708 748.011C384.976 747.841 386.553 747.656 388.44 747.455C390.357 747.146 392.399 746.937 394.567 746.83C396.857 746.646 399.118 746.57 401.35 746.603C402.373 746.589 403.536 746.621 404.839 746.701C406.264 746.702 407.582 746.727 408.791 746.775C410.001 746.823 411.055 746.878 411.955 746.942C412.949 747.036 413.539 747.115 413.726 747.177C415.221 747.677 415.809 748.527 415.487 749.727Z" fill="black"/>
<path d="M494.043 672.425C494.193 672.61 494.33 672.742 494.454 672.82C494.551 672.792 494.626 672.885 494.679 673.099C494.838 673.742 493.927 675.333 491.947 677.874C489.94 680.307 487.416 683.18 484.376 686.494C481.308 689.701 478.06 693.019 474.63 696.448C471.174 699.77 468.063 702.587 465.296 704.9C465.349 705.114 465.424 705.839 465.521 707.076C465.617 708.312 465.705 709.09 465.785 709.412L466.539 712.466C467.147 714.93 468.096 717.294 469.385 719.557C470.648 721.713 472.197 723.554 474.034 725.08C475.969 726.578 478.102 727.614 480.434 728.189C482.766 728.763 485.293 728.648 488.015 727.843C489.181 727.498 490.538 726.867 492.085 725.95C493.702 724.896 495.182 723.711 496.526 722.394C497.94 720.941 499.12 719.384 500.066 717.725C501.013 716.065 501.433 714.389 501.328 712.695C502.521 712.458 503.294 712.631 503.647 713.217C504.097 713.773 504.349 714.159 504.402 714.373C505.09 717.159 505.053 719.757 504.292 722.166C503.602 724.44 502.492 726.493 500.963 728.325C499.504 730.021 497.834 731.492 495.951 732.739C494.14 733.85 492.456 734.635 490.901 735.095C482.542 737.568 475.832 736.793 470.771 732.772C465.71 728.75 462.148 722.56 460.084 714.202C459.978 713.774 459.837 712.781 459.661 711.223C459.485 709.666 459.331 708.619 459.199 708.083C459.172 707.976 458.951 707.926 458.536 707.934C458.094 707.835 457.604 707.75 457.065 707.68C456.623 707.58 456.155 707.374 455.661 707.06C455.237 706.611 454.919 705.957 454.707 705.1C454.496 704.243 454.615 703.46 455.066 702.752C455.517 702.044 456.078 701.36 456.75 700.702L457.97 699.306C457.839 694.976 457.894 690.763 458.135 686.668C458.446 682.437 459.048 678.119 459.943 673.716C459.165 673.946 458.312 674.083 457.385 674.127C456.457 674.172 455.834 673.551 455.517 672.266C455.146 670.765 455.514 668.875 456.619 666.593C457.822 664.283 459.246 662.022 460.89 659.811C462.631 657.571 464.39 655.614 466.167 653.939C467.917 652.156 469.23 651.136 470.105 650.877C470.493 650.762 470.763 650.797 470.913 650.983C471.134 651.032 471.439 651 471.827 650.885C472.605 650.655 473.537 650.206 474.624 649.54C475.809 648.845 477.028 648.082 478.283 647.25C479.538 646.419 480.709 645.671 481.796 645.004C482.981 644.309 483.961 643.846 484.739 643.616C485.614 643.357 486.325 643.492 486.873 644.02C487.517 644.519 487.932 645.144 488.118 645.894C488.329 646.751 488.002 647.537 487.136 648.254C486.243 648.863 485.434 649.389 484.71 649.833C482.12 651.174 479.491 652.987 476.822 655.271C474.223 657.419 471.859 659.671 469.729 662.026C469.048 663.492 468.305 665.551 467.499 668.204C466.668 670.749 465.964 673.602 465.388 676.761C464.813 679.921 464.361 683.159 464.032 686.475C463.801 689.763 463.87 692.789 464.24 695.554L466.401 693.535C472.907 687.357 478.215 682.453 482.325 678.823C486.532 675.164 489.948 672.946 492.572 672.17C493.058 672.026 493.548 672.111 494.043 672.425Z" fill="black"/>
<path d="M619.123 687.199C619.461 687.745 619.788 688.238 620.103 688.68C620.417 689.122 620.694 689.636 620.933 690.221C621.271 690.767 621.499 691.3 621.615 691.82C621.779 692.548 621.659 693.218 621.257 693.83C620.879 694.546 620.378 695.197 619.754 695.783C619.23 696.33 618.682 696.773 618.111 697.112C617.54 697.451 617.205 697.64 617.106 697.679C616.512 697.913 614.991 696.419 612.543 693.196C610.118 690.077 607.195 685.457 603.774 679.334C600.451 673.172 596.787 665.73 592.783 657.006C588.778 648.283 584.91 638.486 581.179 627.616C581.517 630.087 581.751 633.052 581.88 636.512C582.084 639.829 581.956 643.107 581.497 646.347C581.037 649.586 580.137 652.546 578.798 655.227C577.533 657.765 575.564 659.563 572.89 660.62C571.008 661.363 568.645 661.164 565.801 660.023C562.957 658.882 560.081 657.357 557.173 655.448C554.341 653.396 551.657 651.285 549.122 649.116C546.663 646.804 544.777 644.887 543.466 643.367C544.889 647.788 546.769 653.047 549.107 659.145C551.543 665.204 554.557 671.431 558.148 677.827C558.509 678.477 558.835 678.97 559.127 679.308C559.494 679.503 559.823 679.769 560.115 680.107C560.505 680.406 560.808 680.796 561.024 681.277C561.315 681.615 561.566 682.252 561.776 683.188C562.079 684.54 561.806 685.724 560.955 686.74C560.104 687.756 559.233 688.44 558.342 688.792C557.847 688.988 557.028 688.462 555.886 687.214C554.72 685.863 553.4 684.063 551.925 681.814C550.45 679.566 548.917 677.057 547.326 674.288C545.712 671.415 544.158 668.575 542.666 665.767C541.273 662.92 540.025 660.242 538.924 657.733C537.798 655.119 537.049 652.981 536.676 651.316C536.07 648.611 535.749 646.699 535.714 645.581C535.778 644.423 535.999 643.486 536.377 642.77L534.243 633.251C533.916 631.795 534.018 630.565 534.548 629.563C535.154 628.418 536.051 627.61 537.24 627.141C538.23 626.749 539.568 627.183 541.252 628.443C542.936 629.703 544.825 631.392 546.917 633.51C549.108 635.588 551.396 637.855 553.779 640.311C556.163 642.767 558.451 645.034 560.642 647.112C562.932 649.152 565.019 650.762 566.901 651.944C568.882 653.086 570.566 653.384 571.953 652.836C573.241 652.327 574.199 650.589 574.828 647.623C575.433 644.552 575.765 640.74 575.822 636.188C575.979 631.596 575.858 626.49 575.461 620.872C575.064 615.253 574.495 609.589 573.754 603.879C573.614 603.255 573.413 602.598 573.15 601.909C572.865 601.116 572.617 600.251 572.407 599.315C572.127 598.066 572.071 596.616 572.24 594.964C572.508 593.273 573.434 592.114 575.019 591.488C575.91 591.135 576.662 591.122 577.274 591.446C577.985 591.731 578.533 592.251 578.917 593.005C579.279 593.655 579.553 594.396 579.739 595.228C580.002 595.917 580.191 596.522 580.308 597.042C580.495 597.875 580.71 599.318 580.955 601.373C581.276 603.285 581.88 606.217 582.766 610.171C583.536 613.604 584.682 617.511 586.203 621.893C587.702 626.171 589.419 630.702 591.354 635.487C593.365 640.128 595.522 644.938 597.825 649.918C600.203 654.754 602.608 659.466 605.038 664.055C607.568 668.605 609.99 672.914 612.304 676.983C614.694 680.908 616.967 684.313 619.123 687.199Z" fill="black"/>
<path d="M678.647 571.923C679.483 573.1 680.101 574.097 680.499 574.911C680.992 575.653 681.438 576.431 681.836 577.245C683.081 579.79 684.218 583.048 685.249 587.019C686.375 590.917 686.952 595.026 686.982 599.346C687.057 603.491 686.413 607.63 685.049 611.761C683.73 615.718 681.226 619.116 677.537 621.954C674.132 624.573 670.419 626.029 666.396 626.321C662.324 626.512 658.309 625.888 654.351 624.449C650.344 622.909 646.635 620.648 643.224 617.668C639.859 614.512 637.18 610.899 635.189 606.826C632.301 600.922 630.167 595.628 628.788 590.945C627.454 586.087 626.677 581.571 626.457 577.396C626.308 577.091 625.969 576.931 625.442 576.916C625.009 576.829 624.668 576.531 624.419 576.022C624.17 575.513 624.272 574.524 624.725 573.055C625.272 571.513 625.986 569.912 626.868 568.254C627.793 566.421 628.747 564.777 629.727 563.322C630.753 561.692 631.596 560.623 632.259 560.113C632.637 559.822 633.351 559.553 634.402 559.305C635.547 558.985 636.828 558.279 638.247 557.188C638.72 556.824 639.168 556.409 639.591 555.943C640.014 555.478 640.51 555.027 641.077 554.59C643.063 553.062 645.69 552.443 648.955 552.733C652.266 552.848 655.686 553.719 659.216 555.347C662.84 556.902 666.357 559.17 669.768 562.151C673.223 564.957 676.183 568.214 678.647 571.923ZM675.885 582.244C674.939 580.31 673.216 577.852 670.717 574.871C668.168 571.788 665.29 569.098 662.084 566.801C658.828 564.402 655.465 562.716 651.995 561.743C648.62 560.697 645.608 561.192 642.96 563.23C642.77 563.375 642.392 563.666 641.825 564.103C641.302 564.365 640.709 564.751 640.047 565.26C639.336 565.667 638.696 566.089 638.128 566.526C637.511 566.861 637.155 567.065 637.061 567.137C635.547 568.302 634.596 570.084 634.208 572.484C633.915 574.811 633.987 577.488 634.425 580.513C634.958 583.466 635.807 586.666 636.972 590.113C638.137 593.56 639.492 596.861 641.035 600.017C641.583 601.137 642.937 603.107 645.098 605.928C647.209 608.648 649.82 611.192 652.932 613.562C656.088 615.757 659.543 617.233 663.297 617.988C667.051 618.743 670.819 617.665 674.602 614.754C677.156 612.79 678.839 610.375 679.65 607.509C680.411 604.541 680.62 601.508 680.277 598.41C680.027 595.239 679.47 592.236 678.603 589.399C677.687 586.462 676.781 584.076 675.885 582.244Z" fill="black"/>
<path d="M779.572 520.178C780.051 521.066 780.099 522.201 779.715 523.582C779.332 524.964 778.672 526.065 777.735 526.885C777.564 527.035 777.261 527.169 776.825 527.29C776.34 527.322 775.965 527.324 775.699 527.295C770.205 526.876 764.523 526.687 758.651 526.73C752.779 526.772 746.817 526.763 740.765 526.702C734.712 526.641 728.607 526.365 722.448 525.875C716.374 525.31 710.321 524.203 704.29 522.554C707.984 526.38 712.23 530.181 717.026 533.957C721.774 537.644 726.269 541.094 730.512 544.309C734.839 547.449 738.576 550.191 741.722 552.536C744.82 554.791 746.609 556.363 747.088 557.251C747.663 558.317 747.692 559.533 747.175 560.901C746.792 562.282 746.174 563.346 745.323 564.092C744.812 564.539 743.947 564.447 742.728 563.815C741.557 563.271 740.109 562.447 738.384 561.342C736.744 560.163 734.967 558.843 733.05 557.383C731.171 555.76 729.316 554.181 727.485 552.647C725.606 551.024 723.865 549.541 722.263 548.198C720.613 546.766 719.282 545.578 718.271 544.633L709.001 536.865C706.989 535.227 704.953 533.546 702.893 531.819C700.785 530.004 698.815 528.329 696.984 526.795C695.238 525.186 693.721 523.768 692.433 522.543C691.23 521.243 690.485 520.327 690.197 519.794C689.67 518.817 689.271 517.728 689 516.528C688.68 515.238 688.861 514.295 689.543 513.699C689.968 513.326 690.338 513.198 690.653 513.315C690.919 513.344 691.137 513.283 691.307 513.134L692.481 511.126C692.907 510.753 693.942 510.696 695.587 510.955C697.269 511.051 699.271 511.391 701.592 511.973C703.998 512.481 706.609 513.137 709.425 513.94C712.241 514.743 715.033 515.501 717.801 516.215C720.654 516.855 723.308 517.473 725.762 518.07C728.301 518.592 730.454 518.864 732.221 518.885C735.053 519.021 737.837 519.067 740.574 519.025C743.31 518.982 746.07 518.984 748.854 519.03C751.675 518.913 754.654 518.855 757.789 518.855C760.924 518.855 764.416 518.936 768.265 519.096C768.398 519.11 768.635 518.968 768.976 518.669C769.146 518.52 769.112 518.224 768.872 517.78C768.632 517.336 768.345 516.803 768.01 516.181C767.339 514.938 765.801 513.017 763.395 510.417C760.941 507.728 757.925 504.811 754.348 501.668C750.808 498.361 746.912 494.974 742.659 491.507C738.358 487.951 734.049 484.73 729.732 481.842C725.452 478.791 721.284 476.295 717.228 474.356C713.257 472.341 709.783 471.134 706.808 470.732C706.009 470.647 705.195 470.183 704.364 469.341C703.619 468.425 703.055 467.612 702.672 466.901C702.336 466.28 702.36 465.278 702.744 463.896C703.164 462.351 703.715 461.281 704.397 460.684C705.419 459.789 707.144 459.848 709.571 460.86C711.998 461.872 714.87 463.476 718.186 465.671C721.455 467.778 724.963 470.328 728.71 473.323C732.543 476.243 736.357 479.244 740.152 482.327C744.634 485.986 748.964 489.712 753.143 493.506C757.359 497.136 761.194 500.642 764.649 504.023C768.188 507.33 771.233 510.417 773.783 513.284C776.418 516.075 778.347 518.374 779.572 520.178Z" fill="black"/>
<path d="M327.393 430.755C327.314 432.259 326.758 433.874 325.724 435.599C324.81 437.31 323.658 439.05 322.269 440.817C320.88 442.585 319.376 444.313 317.756 446.001C316.141 447.582 314.653 448.988 313.293 450.219C309.956 453.18 306.507 456.048 302.945 458.823C299.506 461.476 295.902 463.936 292.131 466.202C288.478 468.454 284.667 470.351 280.699 471.893C276.73 473.435 272.612 474.461 268.344 474.971C255.422 476.516 249.277 471.271 249.91 459.236C249.972 458.054 250.627 455.68 251.874 452.114C253.122 448.548 254.692 444.464 256.583 439.86C258.474 435.256 260.674 430.402 263.18 425.297C265.687 420.192 268.23 415.511 270.811 411.252C273.396 406.885 275.883 403.278 278.271 400.43C280.778 397.567 283.039 396.016 285.054 395.775C286.358 395.619 287.287 395.882 287.84 396.563C288.512 397.23 288.825 397.994 288.78 398.853C288.628 399.512 287.724 401.008 286.07 403.341C284.422 405.567 282.711 407.854 280.938 410.201C280.684 410.552 280.241 411.139 279.609 411.962C278.976 412.785 278.344 413.608 277.712 414.431C276.955 415.375 276.196 416.374 275.434 417.426C274.92 418.235 273.751 420.296 271.928 423.611C270.228 426.804 268.382 430.548 266.389 434.844C264.402 439.032 262.581 443.414 260.927 447.989C259.278 452.457 258.369 456.303 258.2 459.527C258.104 461.353 258.442 462.754 259.216 463.73C260.108 464.691 261.132 465.369 262.289 465.765C263.565 466.146 264.85 466.366 266.142 466.425C267.559 466.363 268.801 466.268 269.868 466.14C274.255 465.616 278.923 464.204 283.875 461.903C288.95 459.481 293.816 456.551 298.474 453.111C303.131 449.671 307.456 445.844 311.447 441.63C315.444 437.309 318.617 432.979 320.966 428.64C321.479 427.832 321.979 427.291 322.465 427.02C323.069 426.734 323.608 426.563 324.082 426.506C325.03 426.393 325.829 426.885 326.478 427.981C327.128 429.078 327.432 430.003 327.393 430.755Z" fill="black"/>
<path d="M401.569 352.391C402.25 353.654 402.738 354.709 403.033 355.554C403.428 356.344 403.774 357.162 404.068 358.007C404.99 360.647 405.723 363.954 406.269 367.928C406.916 371.847 407.003 375.881 406.53 380.029C406.121 384.018 405.009 387.884 403.195 391.629C401.445 395.213 398.601 398.072 394.663 400.203C391.028 402.171 387.227 402.973 383.259 402.609C379.254 402.14 375.4 400.899 371.697 398.886C367.957 396.767 364.593 394.005 361.604 390.6C358.68 387.035 356.481 383.14 355.007 378.915C352.87 372.789 351.399 367.37 350.595 362.657C349.855 357.783 349.621 353.327 349.892 349.287C349.782 348.971 349.469 348.763 348.955 348.665C348.541 348.512 348.242 348.171 348.058 347.643C347.874 347.115 348.089 346.183 348.703 344.846C349.418 343.454 350.302 342.034 351.357 340.584C352.476 338.974 353.599 337.549 354.727 336.311C355.92 334.912 356.869 334.021 357.576 333.638C357.98 333.42 358.71 333.276 359.766 333.206C360.923 333.082 362.259 332.61 363.773 331.79C364.278 331.517 364.765 331.191 365.233 330.812C365.701 330.433 366.237 330.08 366.843 329.752C368.964 328.604 371.604 328.431 374.764 329.231C377.988 329.872 381.232 331.255 384.494 333.381C387.858 335.453 391.034 338.191 394.022 341.596C397.075 344.841 399.59 348.439 401.569 352.391ZM397.667 361.849C396.967 359.842 395.568 357.209 393.47 353.949C391.336 350.584 388.835 347.544 385.967 344.827C383.061 342.005 379.969 339.849 376.688 338.36C373.509 336.817 370.506 336.81 367.679 338.34C367.477 338.45 367.073 338.668 366.467 338.996C365.926 339.164 365.302 339.439 364.595 339.822C363.851 340.099 363.176 340.401 362.571 340.729C361.928 340.951 361.556 341.09 361.455 341.144C359.84 342.019 358.703 343.576 358.044 345.816C357.486 348.002 357.245 350.581 357.322 353.553C357.5 356.47 357.958 359.676 358.696 363.168C359.434 366.661 360.375 370.045 361.517 373.319C361.922 374.481 363.018 376.588 364.802 379.639C366.551 382.586 368.808 385.444 371.576 388.216C374.407 390.827 377.614 392.795 381.197 394.12C384.781 395.445 388.591 395.014 392.63 392.828C395.356 391.352 397.283 389.305 398.409 386.686C399.499 383.961 400.057 381.085 400.081 378.058C400.206 374.977 400.01 372.007 399.493 369.148C398.939 366.183 398.33 363.75 397.667 361.849Z" fill="black"/>
<path d="M556.498 322.574C556.751 323.821 556.317 324.986 555.195 326.07C554.074 327.154 552.726 327.948 551.152 328.453C550.837 328.554 550.365 328.706 549.735 328.908C549.083 328.996 548.378 329.102 547.62 329.224C546.863 329.346 546.21 329.435 545.662 329.49C545.115 329.544 544.841 329.572 544.841 329.572C541.273 330.716 537.161 332.759 532.504 335.701C527.825 338.53 523.022 341.579 518.097 344.849C513.253 347.971 508.44 350.964 503.655 353.826C498.894 356.802 494.572 358.912 490.689 360.157C485.862 361.706 482.208 362.153 479.729 361.499C477.272 360.959 475.619 358.592 474.769 354.398C474.195 351.564 474.409 347.934 475.412 343.508C476.414 339.081 477.802 334.351 479.576 329.315C481.349 324.28 483.374 319.103 485.649 313.786C487.901 308.356 489.948 303.293 491.79 298.597C493.633 293.902 495.136 289.738 496.299 286.105C497.44 282.359 497.827 279.579 497.459 277.766C497.16 276.292 495.881 275.495 493.622 275.375C491.467 275.22 489.235 275.514 486.926 276.254C485.667 276.658 484.641 277.108 483.847 277.604C483.136 277.953 482.068 278.476 480.645 279.174C479.304 279.725 477.333 280.478 474.732 281.432C472.132 282.387 468.313 283.672 463.276 285.287C461.702 285.792 460.152 285.867 458.627 285.511C457.184 285.008 456.348 284.189 456.118 283.056C455.957 282.262 456.234 281.147 456.949 279.711C457.64 278.161 458.29 277.229 458.896 276.913C459.211 276.812 460.096 276.77 461.553 276.786C463.009 276.802 464.209 276.658 465.154 276.355C469.666 274.908 473.403 273.77 476.364 272.941C479.325 272.112 481.931 271.458 484.181 270.978C485.253 270.755 486.891 270.29 489.095 269.583C491.276 268.763 493.514 268.226 495.809 267.973C498.21 267.686 500.376 267.896 502.308 268.605C504.217 269.2 505.424 270.744 505.929 273.238C506.343 275.279 506.207 277.918 505.522 281.155C504.942 284.36 503.977 287.868 502.627 291.682C501.381 295.461 499.896 299.439 498.172 303.613C496.552 307.754 494.91 311.782 493.244 315.696C491.52 319.871 489.925 323.582 488.46 326.828C487.099 330.041 485.978 333.057 485.096 335.875C484.297 338.546 483.736 341.019 483.415 343.295C483.094 345.571 483.152 347.786 483.589 349.94C483.68 350.393 483.971 350.722 484.459 350.928C484.925 351.02 485.484 351.022 486.137 350.933C486.79 350.845 487.442 350.756 488.095 350.667C488.724 350.466 489.249 350.297 489.669 350.163C491.348 349.624 494.498 348.071 499.118 345.503C503.739 342.934 509.018 340.034 514.957 336.801C520.978 333.422 527.19 330.162 533.595 327.022C540.104 323.848 546.035 321.402 551.387 319.686C552.541 319.316 553.596 319.279 554.55 319.577C555.481 319.761 556.131 320.76 556.498 322.574Z" fill="black"/>
<path d="M649.958 291.441C649.759 293.102 649.248 294.25 648.426 294.887C647.709 295.534 646.929 295.815 646.087 295.73C645.139 295.634 644.213 295.359 643.309 294.907C642.509 294.466 641.461 293.879 640.164 293.147L637.923 291.839C637.642 292.411 637.391 293.166 637.172 294.104C637.072 294.934 636.987 295.646 636.916 296.239C636.418 300.39 636.034 304.913 635.767 309.807C635.499 314.702 635.284 319.602 635.121 324.507C634.958 329.413 634.863 334.205 634.834 338.884C634.91 343.573 634.938 347.777 634.918 351.497C634.884 355.335 634.875 358.515 634.892 361.038C634.894 363.679 634.853 365.355 634.768 366.067L634.234 370.514C634.077 371.819 633.777 372.989 633.333 374.024C632.994 375.07 632.404 375.551 631.562 375.465C629.983 375.305 628.792 373.683 627.99 370.601C627.279 367.647 626.783 364.236 626.502 360.366C626.311 356.625 626.272 352.96 626.383 349.37C626.48 345.898 626.6 343.569 626.742 342.383C626.842 341.553 626.926 339.521 626.994 336.287C627.168 333.063 627.332 329.478 627.486 325.533C627.654 321.468 627.823 317.404 627.991 313.339C628.278 309.167 628.593 305.657 628.935 302.811C629.077 301.625 629.181 300.315 629.247 298.881C629.432 297.339 629.603 295.916 629.759 294.612L630.421 289.097C630.649 287.199 629.673 285.119 627.494 282.857C625.42 280.606 622.841 278.123 619.758 275.409C616.688 272.576 613.549 269.436 610.34 265.989C607.145 262.424 604.653 258.329 602.864 253.706C602.562 253.555 602.469 253.005 602.582 252.057C602.782 250.396 603.275 248.946 604.064 247.705C604.852 246.465 605.772 245.898 606.825 246.005C607.141 246.037 607.558 246.56 608.075 247.573C608.607 248.467 609.269 249.615 610.059 251.015C610.85 252.416 611.778 254.011 612.841 255.8C613.92 257.47 615.163 259.096 616.571 260.68C617.495 261.854 618.805 263.368 620.501 265.221C622.211 266.955 623.868 268.684 625.472 270.407C627.182 272.142 628.65 273.671 629.876 274.996C631.116 276.203 631.789 276.811 631.894 276.822C632.316 276.865 632.636 276.417 632.855 275.479C633.074 274.541 633.198 273.953 633.226 273.716L635.297 263.122C636.549 257.127 637.836 251.736 639.156 246.948C640.596 242.052 641.537 237.766 641.978 234.089C642.021 233.734 642.001 233.011 641.919 231.923C641.836 230.834 641.816 230.112 641.859 229.756C641.944 229.044 642.219 228.532 642.683 228.219C643.161 227.787 643.677 227.479 644.232 227.296C644.906 227.004 645.672 226.842 646.528 226.809C648.002 226.958 648.976 227.717 649.451 229.086C649.94 230.336 650.121 231.495 649.993 232.563C649.48 236.832 648.719 240.956 647.709 244.935C646.804 248.925 645.793 252.904 644.678 256.872C643.667 260.851 642.643 264.949 641.604 269.165C640.685 273.273 639.947 277.64 639.392 282.265C639.307 282.977 639.583 283.785 640.22 284.69C640.871 285.476 641.681 286.279 642.648 287.097C643.735 287.808 644.92 288.589 646.203 289.439C647.5 290.171 648.752 290.838 649.958 291.441Z" fill="black"/>
</g>
<defs>
<filter id="filter0_d_53_1534" x="0" y="0" width="1095.84" height="1119.49" filterUnits="userSpaceOnUse" color-interpolation-filters="sRGB">
<feFlood flood-opacity="0" result="BackgroundImageFix"/>
<feColorMatrix in="SourceAlpha" type="matrix" values="0 0 0 0 0 0 0 0 0 0 0 0 0 0 0 0 0 0 127 0" result="hardAlpha"/>
<feOffset dx="47.3023" dy="70.9535"/>
<feGaussianBlur stdDeviation="15.7674"/>
<feComposite in2="hardAlpha" operator="out"/>
<feColorMatrix type="matrix" values="0 0 0 0 0 0 0 0 0 0 0 0 0 0 0 0 0 0 0.25 0"/>
<feBlend mode="normal" in2="BackgroundImageFix" result="effect1_dropShadow_53_1534"/>
<feBlend mode="normal" in="SourceGraphic" in2="effect1_dropShadow_53_1534" result="shape"/>
</filter>
</defs>
</svg>
