<svg width="85" height="57" viewBox="0 0 85 57" fill="none" xmlns="http://www.w3.org/2000/svg">
<g filter="url(#filter0_d_70_846)">
<path d="M5.42042 46.1172C2.96018 44.5236 4.1903 2.29439 5.42042 0.966424C6.65053 -0.36154 7.38859 0.966425 20.9199 1.49761C34.4511 2.0288 76.2751 -1.6895 77.2592 0.966424C78.2432 3.62235 78.7353 8.40303 78.7353 13.7149C78.7353 19.0267 80.2114 45.0548 78.7353 47.1796C77.2592 49.3043 76.5211 47.9763 64.2199 47.7108C51.9188 47.4452 7.88066 47.7108 5.42042 46.1172Z" fill="#FFE860"/>
<path d="M46.2 2.37083C34.5831 2.13375 8.97847 -0.711207 6.60767 1.18543C4.23688 3.08207 4.94812 4.74163 4.94812 16.5956C4.94811 28.4496 3.05148 46.4677 6.60767 47.416C10.1639 48.3643 13.0088 45.9935 35.7685 45.9935C58.5281 45.9935 77.9687 48.6014 79.3912 47.416C80.8136 46.2306 79.3912 41.7261 78.6799 37.6957C77.9687 33.6654 77.7316 15.4102 77.9687 10.6686C78.2057 5.92703 80.1024 2.37083 78.6799 1.18543C77.2574 3.24249e-05 57.8169 2.60791 46.2 2.37083Z" stroke="black" stroke-width="0.474159"/>
<path d="M8.03027 2.60791C15.7749 7.27048 24.3888 12.0911 31.7382 16.8327C39.0877 21.5743 40.7473 24.8934 43.3552 24.8934C45.963 24.8934 54.0237 12.5653 75.8351 2.60791" stroke="black" stroke-width="0.474159" stroke-linecap="round"/>
<path d="M21.5439 6.40118C35.2559 12.5716 40.965 16.6251 42.5206 18.2817C42.7251 18.4994 43.0816 18.5414 43.3031 18.341C46.104 15.8061 52.5248 10.7598 59.0025 8.06074" stroke="white" stroke-width="2.3708" stroke-linecap="round"/>
<path d="M12.0605 41.0148C13.483 41.2519 17.466 41.5838 22.0179 41.0148" stroke="white" stroke-width="2.3708" stroke-linecap="round"/>
<path d="M70.1451 15.1731C70.1451 15.1731 66.826 17.0698 63.5068 22.0484" stroke="white" stroke-width="2.3708" stroke-linecap="round"/>
</g>
<defs>
<filter id="filter0_d_70_846" x="0" y="3.05176e-05" width="84.2368" height="56.3643" filterUnits="userSpaceOnUse" color-interpolation-filters="sRGB">
<feFlood flood-opacity="0" result="BackgroundImageFix"/>
<feColorMatrix in="SourceAlpha" type="matrix" values="0 0 0 0 0 0 0 0 0 0 0 0 0 0 0 0 0 0 127 0" result="hardAlpha"/>
<feOffset dy="4"/>
<feGaussianBlur stdDeviation="2"/>
<feComposite in2="hardAlpha" operator="out"/>
<feColorMatrix type="matrix" values="0 0 0 0 0 0 0 0 0 0 0 0 0 0 0 0 0 0 0.25 0"/>
<feBlend mode="normal" in2="BackgroundImageFix" result="effect1_dropShadow_70_846"/>
<feBlend mode="normal" in="SourceGraphic" in2="effect1_dropShadow_70_846" result="shape"/>
</filter>
</defs>
</svg>
