<svg width="699" height="894" viewBox="0 0 699 894" fill="none" xmlns="http://www.w3.org/2000/svg">
<g filter="url(#filter0_d_108_2933)">
<path d="M501.757 63.012C533.84 15.115 544.76 13.5003 566.597 5.41726C582.956 -0.77635 592.355 -0.776192 603.452 7.43806C618.467 18.5529 636.212 31.6879 626.657 59.9791C617.102 88.2703 604.817 104.437 602.087 105.447C599.357 106.457 588.437 99.3847 592.532 67.0519C596.627 34.7191 582.977 33.8531 580.247 32.6983C577.517 31.5434 571.356 31.1179 559.756 41.7493C548.157 52.3808 546.641 59.9791 533.84 77.1555C521.039 94.3319 142.163 807.214 130.563 817.845C118.964 828.475 107.364 817.845 107.364 817.845C107.364 817.845 100.836 811.077 107.364 796.582C113.892 782.086 469.674 110.909 501.757 63.012Z" fill="black"/>
<path d="M236.178 175.711C236.178 175.711 137.877 190.834 84.945 258.89C32.013 326.945 32.0135 410.124 39.5747 500.865C47.1359 591.606 92.5081 682.345 198.371 727.716C304.234 773.087 379.852 750.402 478.154 720.155C576.457 689.907 614.265 636.976 644.512 568.92C674.758 500.868 659.636 410.134 652.074 364.761L652.073 364.754C644.511 319.384 606.702 258.89 553.77 221.082C500.838 183.274 493.277 175.711 410.099 168.149C326.921 160.587 236.178 175.711 236.178 175.711Z" fill="#FFE860"/>
<path d="M240.169 181.157C240.169 181.157 129.336 209.636 84.4405 282.356C39.5449 355.077 36.0823 422.198 43.5645 506.312C51.0467 590.425 85.137 655.351 196.681 716.942C308.224 778.534 351.509 745.106 473.54 709.933C595.57 674.76 605.13 648.299 638.158 569.744C671.187 491.188 653.122 422.546 645.64 380.489C638.157 338.433 610.14 254.013 557.761 218.966C505.382 183.92 488.836 173.044 406.527 166.034C324.218 159.025 240.169 181.157 240.169 181.157Z" stroke="black" stroke-width="4.99074" stroke-linecap="round"/>
<path d="M571.654 300.089C571.654 300.089 605.127 440.085 569.267 545.163C533.407 650.238 470.587 710.418 470.587 710.418" stroke="black" stroke-width="5.05332"/>
<path d="M453.977 293.866C453.977 293.866 489.795 440.214 451.057 549.718C412.321 659.224 318.979 750.845 318.979 750.845" stroke="black" stroke-width="5.05332"/>
<path d="M329.09 306.153C329.09 306.153 369.377 440.191 336.534 540.622C303.691 641.052 205.79 720.525 205.79 720.525" stroke="black" stroke-width="5.05332"/>
<path d="M258.346 669.992C258.346 669.992 205.382 666.989 154.598 647.572C103.814 628.154 56.2136 568.925 56.2136 568.925" stroke="black" stroke-width="5.05332"/>
<path d="M308.875 599.247C308.875 599.247 191.418 578.923 138.693 530.105C85.9686 481.287 76.4227 417.328 76.4227 417.328" stroke="black" stroke-width="5.05332"/>
<path d="M349.302 488.074C349.302 488.074 265.44 479.258 216.564 438.694C167.689 398.13 159.008 365.339 159.008 365.339" stroke="black" stroke-width="5.05332"/>
<path d="M341.834 360.826C341.834 360.826 314.749 355.215 296.692 346.155C278.636 337.095 257.194 321.327 257.194 321.327" stroke="black" stroke-width="5.05332"/>
<path d="M40.0427 447.647C40.0427 447.647 169.312 333.998 315.154 307.256C460.999 280.514 622.186 306.154 622.186 306.154" stroke="black" stroke-width="5.05332"/>
<path d="M56.2136 340.517C56.2136 340.517 165.045 244.309 291.407 217.157C417.768 190.002 552.449 215.195 552.449 215.195" stroke="black" stroke-width="5.05332"/>
<path d="M194.996 304.837C194.996 304.837 208.393 286.977 257.516 269.114C306.639 251.251 333.434 251.251 333.434 251.251" stroke="white" stroke-width="20.989" stroke-linecap="round"/>
<path d="M261.652 530.448C261.652 530.448 239.335 529.794 196.424 499.949C153.512 470.103 138.068 448.207 138.068 448.207" stroke="white" stroke-width="20.989" stroke-linecap="round"/>
<path d="M521.628 322.591C521.628 322.591 534.595 340.766 536.75 392.992C538.906 445.217 530.796 470.755 530.796 470.755" stroke="white" stroke-width="20.989" stroke-linecap="round"/>
</g>
<defs>
<filter id="filter0_d_108_2933" x="0.517792" y="0.998047" width="709.96" height="892.529" filterUnits="userSpaceOnUse" color-interpolation-filters="sRGB">
<feFlood flood-opacity="0" result="BackgroundImageFix"/>
<feColorMatrix in="SourceAlpha" type="matrix" values="0 0 0 0 0 0 0 0 0 0 0 0 0 0 0 0 0 0 127 0" result="hardAlpha"/>
<feOffset dy="35.4778"/>
<feGaussianBlur stdDeviation="17.7389"/>
<feComposite in2="hardAlpha" operator="out"/>
<feColorMatrix type="matrix" values="0 0 0 0 0 0 0 0 0 0 0 0 0 0 0 0 0 0 0.25 0"/>
<feBlend mode="normal" in2="BackgroundImageFix" result="effect1_dropShadow_108_2933"/>
<feBlend mode="normal" in="SourceGraphic" in2="effect1_dropShadow_108_2933" result="shape"/>
</filter>
</defs>
</svg>
