<svg width="706" height="706" viewBox="0 0 706 706" fill="none" xmlns="http://www.w3.org/2000/svg">
<g filter="url(#filter0_d_123_4776)">
<path d="M628.921 216.35C633.226 231.537 618.54 263.593 619.044 279.493C622.555 390.092 604.144 482.469 455.038 557.307C329.695 613.205 159.177 599.498 104.698 514.397C95.8213 500.53 71.7831 499.398 66.9834 482.469C63.0783 468.695 77.8392 440.219 77.0714 425.841C71.1041 314.094 116.767 232.39 254.747 145.597C399.402 81.0584 536.041 101.261 590.765 185.786C599.863 199.838 624.038 199.127 628.921 216.35Z" fill="#FFE606"/>
<path d="M66.6415 478.528C66.3253 477.413 66.3194 475.778 66.7391 473.542C67.1536 471.334 67.9455 468.734 69.0372 465.819C71.2228 459.983 74.489 453.195 77.9171 446.26C78.4588 445.164 79.0046 444.064 79.5503 442.965C82.4297 437.163 85.305 431.37 87.5426 426.205C88.8764 423.126 90.0123 420.206 90.7985 417.584C91.5744 414.997 92.066 412.52 91.9732 410.399C89.6791 357.966 99.5328 308.516 125.594 265.186C151.654 221.858 194.077 184.387 257.334 156.177C318.525 128.889 386.822 118.81 446.348 125.384C505.933 131.965 556.376 155.181 582.294 194.047C584.885 197.932 589.174 199.803 593.772 200.838C597.829 201.752 602.44 202.076 606.854 202.387C607.453 202.429 608.048 202.471 608.638 202.514C613.681 202.882 618.323 203.336 621.977 204.626C625.585 205.901 627.906 207.874 628.808 211.053C629.655 214.044 629.342 219.279 628.127 226.161C626.936 232.913 624.968 240.796 622.859 248.793C622.242 251.13 621.613 253.481 620.989 255.812C619.49 261.408 618.02 266.895 616.829 271.837C615.159 278.761 613.936 284.986 614.025 289.127C615.131 341.121 606.438 390.796 582.042 434.358C557.665 477.887 517.455 515.586 455.078 543.404C393.675 570.787 321.266 584.11 257.711 580.678C194.054 577.24 139.806 557.032 114.073 517.993C111.718 514.42 107.69 511.124 103.15 507.992C99.7846 505.67 95.9935 503.346 92.1936 501.016C90.8378 500.185 89.4809 499.353 88.1418 498.52C83.0009 495.323 78.0888 492.094 74.1919 488.709C70.2562 485.29 67.6012 481.913 66.6415 478.528Z" stroke="black" stroke-width="4.45093"/>
</g>
<defs>
<filter id="filter0_d_123_4776" x="-27.2142" y="0" width="754.544" height="762.057" filterUnits="userSpaceOnUse" color-interpolation-filters="sRGB">
<feFlood flood-opacity="0" result="BackgroundImageFix"/>
<feColorMatrix in="SourceAlpha" type="matrix" values="0 0 0 0 0 0 0 0 0 0 0 0 0 0 0 0 0 0 127 0" result="hardAlpha"/>
<feOffset dy="28.0287"/>
<feGaussianBlur stdDeviation="14.0143"/>
<feComposite in2="hardAlpha" operator="out"/>
<feColorMatrix type="matrix" values="0 0 0 0 0 0 0 0 0 0 0 0 0 0 0 0 0 0 0.25 0"/>
<feBlend mode="normal" in2="BackgroundImageFix" result="effect1_dropShadow_123_4776"/>
<feBlend mode="normal" in="SourceGraphic" in2="effect1_dropShadow_123_4776" result="shape"/>
</filter>
</defs>
</svg>
