<svg width="93" height="119" viewBox="0 0 93 119" fill="none" xmlns="http://www.w3.org/2000/svg">
<g filter="url(#filter0_d_70_736)">
<path d="M14.1177 33.8758C14.1177 12.7034 12.5756 5.75743 14.1177 3.17583C15.6597 0.594233 28.6837 1.10776 28.6837 1.10776C28.6837 1.10776 44.8175 1.91418 60.6968 2.11722C76.5761 2.32027 82.8574 1.38734 84.8114 2.32027C86.7653 3.25321 86.7653 5.46673 86.7653 10.2134V24.3483C87.3526 46.0526 86.1038 46.5043 86.1038 55.0483V80.4552C86.1038 80.4552 86.9974 101.737 86.1038 102.686C85.2102 103.636 84.9781 102.686 81.4039 102.686C77.8297 102.686 68.3407 101.737 63.8728 101.737C59.4049 101.737 43.759 101.628 43.759 101.628H23.6452C23.6452 101.628 14.4701 102.686 13.4932 101.737C12.5163 100.788 13.0591 78.4223 13.0591 69.869C13.0591 61.3156 14.1177 55.0483 14.1177 33.8758Z" fill="white"/>
<path d="M15.2178 36.4773C15.2177 27.1324 14.2726 4.70442 15.2178 3.09449C16.1629 1.48456 28.9695 1.90093 28.9695 1.90093L48.3001 3.09449C48.3001 3.09449 81.3825 2.17614 83.273 3.0945C85.1634 4.01285 85.1634 9.37689 85.1634 14.0494V28.0668C85.7317 49.4321 85.1634 46.7569 85.1634 55.1673V82.2678C85.1634 82.2678 86.028 100.023 85.1634 100.958C84.2988 101.892 83.4343 101.892 79.9762 101.892C76.5182 101.892 69.602 100.023 65.2794 100.023H45.4645L22.0532 100.958C22.0532 100.958 15.2178 101.892 14.2726 100.958C13.3275 100.023 14.2725 79.4735 14.2725 71.0538C14.2725 62.634 15.2179 45.8223 15.2178 36.4773Z" stroke="black" stroke-width="0.611354" stroke-linecap="round"/>
<path d="M50.436 86.7281C49.9379 87.5402 47.9144 88.1991 47.2293 88.8717C42.4633 93.55 37.6099 96.5101 28.1907 92.9516C20.5841 89.6733 14.2199 81.5436 15.7698 75.6454C16.0223 74.6844 15.0896 73.571 15.6448 72.6657C16.0966 71.9291 17.9642 71.4199 18.5711 70.7979C23.2875 65.9636 28.7815 64.6496 38.2763 67.2254C47.0563 71.0076 51.7468 77.8991 50.2325 83.7846C49.9808 84.763 51.0009 85.8071 50.436 86.7281Z" fill="#FFE606"/>
<path d="M49.8592 86.3637C49.3634 87.1721 47.2638 87.8106 46.5541 88.4618C42.0876 92.5593 37.1971 95.6114 28.2211 92.1924C20.852 89.0165 15.106 80.89 16.5376 75.443C16.7575 74.6062 15.7212 73.6059 16.2028 72.8208C16.6232 72.1352 18.511 71.6872 19.0875 71.1143C23.4684 66.761 32.0131 65.7247 39.5257 68.9625C46.8815 72.1326 50.8378 78.3613 49.4283 83.8012C49.2088 84.6484 50.3464 85.5693 49.8592 86.3637Z" fill="#FFFEFE"/>
<path d="M46.9773 85.6838C43.6825 91.0561 36.0629 93.2537 28.3158 89.9149C20.5688 86.5762 15.628 78.9655 18.9228 73.5932C22.2177 68.2209 31.1689 66.5724 38.9159 69.9111C46.6629 73.2498 50.2721 80.3115 46.9773 85.6838Z" fill="#FFE860"/>
<path d="M15.8064 72.4897C15.8913 72.3513 16.0722 72.2148 16.3345 72.0773C16.5931 71.9417 16.9085 71.8162 17.2373 71.691C17.2988 71.6676 17.3609 71.6441 17.423 71.6207C17.6893 71.5201 17.9575 71.4188 18.1947 71.3142C18.484 71.1867 18.75 71.0448 18.9168 70.877C23.3768 66.3927 30.7477 63.8589 38.4034 67.1583C42.1167 68.7586 45.4081 71.4186 47.6018 74.3707C49.7978 77.3261 50.88 80.5547 50.2148 83.2935C50.1518 83.5528 50.1898 83.839 50.263 84.1244C50.3213 84.3515 50.4052 84.5892 50.4876 84.8227C50.509 84.8833 50.5303 84.9436 50.551 85.0034C50.6529 85.2975 50.7416 85.5802 50.7737 85.8406C50.8058 86.1013 50.779 86.3243 50.6671 86.5068C50.5674 86.6693 50.3458 86.859 50.0343 87.0678C49.7274 87.2734 49.3522 87.4854 48.9659 87.6959C48.8492 87.7595 48.7312 87.8231 48.6141 87.8862C48.3463 88.0307 48.0826 88.1729 47.8469 88.308C47.5109 88.5008 47.214 88.6891 47.0351 88.8611C44.7725 91.0361 41.9608 92.8898 38.7759 93.7939C35.5945 94.6969 32.0309 94.6555 28.2528 93.0273C24.5304 91.423 21.1181 88.5957 18.8101 85.4741C16.4989 82.3482 15.3123 78.9516 15.994 76.209C16.0563 75.9583 16.0379 75.6447 15.9913 75.3151C15.9568 75.0708 15.9049 74.8075 15.853 74.5435C15.8344 74.4494 15.8159 74.3551 15.7981 74.2616C15.7298 73.9027 15.6722 73.5526 15.6632 73.2412C15.654 72.9267 15.6953 72.6707 15.8064 72.4897Z" stroke="black" stroke-width="0.268628"/>
<path d="M19.4848 75.7702C18.1321 75.5112 17.6105 78.3385 17.6105 78.3385L18.1636 73.2894L21.3154 70.8992C21.671 70.5978 21.9702 70.4026 21.9702 70.4026L21.3154 70.8992C20.5803 71.5222 19.6044 72.599 20.5349 73.3419C21.9155 74.4442 43.1474 83.1331 45.6085 83.1156C47.3545 83.2144 48.2806 81.4076 48.2806 81.4076L48.3951 85.7714L44.4657 88.4386C44.4657 88.4386 47.0233 86.4773 45.6061 85.4919C44.1889 84.5064 19.4848 75.7702 19.4848 75.7702Z" fill="#FFFDF0"/>
<path d="M20.4593 72.8635C20.1466 71.5274 21.981 69.9444 23.6573 69.3172C25.3335 68.69 26.3971 68.4842 28.081 68.1962C29.765 67.9082 33.0692 67.9683 34.7579 68.542C36.4467 69.1157 41.4406 70.859 43.765 73.3822C46.0893 75.9055 47.6241 77.6094 47.8428 79.2786C48.0614 80.9478 48.1835 83.3613 47.0201 83.4586C45.8566 83.5559 23.9952 74.7196 23.9952 74.7196M43.0154 84.4084C40.9452 83.5852 37.1894 82.3364 35.6872 81.6629C35.6872 81.6629 26.1054 77.7397 25.0671 77.4691C24.0288 77.1984 20.6452 75.1068 18.9152 75.7469C17.1852 76.3869 18.4058 80.59 18.6332 81.391C18.8607 82.1921 20.1461 84.9852 23.029 86.8048C25.912 88.6245 31.0874 90.8621 34.0757 90.8969C37.0641 90.9316 40.4387 90.3777 41.7202 89.9551C43.0017 89.5325 44.9173 87.9845 45.8533 87.0861" stroke="black" stroke-width="0.268628" stroke-linecap="round"/>
<path d="M28.5202 81.0475C29.4797 80.4872 30.5703 79.4776 30.7399 80.0113C30.9095 80.5451 29.9913 81.5301 29.6626 82.2175C29.334 82.9049 29.1182 83.9792 28.6762 84.3728C28.2341 84.7664 27.62 85.138 27.163 84.6606C26.7061 84.1833 26.7899 82.6888 27.0407 82.2863C27.2914 81.8838 27.5606 81.6078 28.5202 81.0475Z" fill="#FBFDF8"/>
<path d="M39.515 78.7719C38.5086 79.1999 37.2878 80.0284 37.2406 79.5236C37.1934 79.0187 38.2492 78.1972 38.6962 77.596C39.1433 76.9948 39.5654 76.0286 40.057 75.7071C40.5486 75.3856 41.1954 75.0997 41.5209 75.5786C41.8465 76.0575 41.4599 77.4211 41.1441 77.7679C40.8282 78.1147 40.5213 78.3438 39.515 78.7719Z" fill="#FBFDF8"/>
<path d="M31.7043 74.8467C31.2851 75.8386 31.0376 77.1678 30.5748 77.0003C30.112 76.8328 30.2375 75.6404 30.0768 75.0322C29.916 74.424 29.4278 73.6872 29.5378 73.1569C29.6477 72.6266 29.9081 71.9847 30.5647 71.9156C31.2214 71.8465 32.0727 72.7164 32.1205 73.1143C32.1682 73.5123 32.1235 73.8549 31.7043 74.8467Z" fill="#FBFDF8"/>
<path d="M34.3007 82.8627C33.9135 82.0763 33.6493 80.8884 33.2822 81.2485C32.9152 81.6087 33.0739 82.7154 32.9727 83.3756C32.8716 84.0358 32.5112 84.9607 32.6256 85.4298C32.7401 85.899 32.9818 86.4126 33.5174 86.2001C34.0529 85.9876 34.7013 84.7786 34.7209 84.3711C34.7406 83.9636 34.688 83.6492 34.3007 82.8627Z" fill="#FBFDF8"/>
<path d="M27.0484 74.5697C27.6649 75.3021 28.268 76.4508 28.5427 76.0435C28.8174 75.6362 28.345 74.5545 28.2635 73.8834C28.1821 73.2122 28.2918 72.2432 28.0432 71.7908C27.7946 71.3385 27.4034 70.8587 26.9149 71.1411C26.4265 71.4236 26.1018 72.7138 26.1958 73.1224C26.2899 73.531 26.4318 73.8373 27.0484 74.5697Z" fill="#FBFDF8"/>
<path d="M35.8435 70.7445C35.8163 70.7695 35.7897 70.794 35.7735 70.809C35.7627 70.8189 35.771 70.8113 35.7721 70.8102C35.7735 70.809 35.8171 70.7688 35.8383 70.7493C35.8828 70.7083 35.795 70.7892 35.7602 70.8212C35.7214 70.857 35.7073 70.8699 35.6531 70.9199" stroke="#FBFDF8" stroke-width="0.469348" stroke-linecap="round"/>
<path d="M20.6897 78.8608C20.5786 78.7403 20.605 78.7689 20.5078 78.6634" stroke="#FBFDF8" stroke-width="0.469348" stroke-linecap="round"/>
<path d="M20.2788 79.6045C20.3576 79.6901 20.3951 79.7307 20.4607 79.802" stroke="#FBFDF8" stroke-width="0.469348" stroke-linecap="round"/>
<path d="M23.3457 78.9699L23.5276 79.1674" stroke="#FBFDF8" stroke-width="0.469348" stroke-linecap="round"/>
<path d="M22.8318 77.6179C22.7681 77.5487 22.6739 77.4465 22.6499 77.4204" stroke="#FBFDF8" stroke-width="0.469348" stroke-linecap="round"/>
<path d="M41.2695 86.9294C41.3601 87.0277 41.4139 87.0862 41.4514 87.1269" stroke="#FBFDF8" stroke-width="0.469348" stroke-linecap="round"/>
<path d="M42.8508 85.4732C42.8396 85.461 42.7405 85.3534 42.6689 85.2758" stroke="#FBFDF8" stroke-width="0.469348" stroke-linecap="round"/>
<path d="M34.9834 87.2418L35.1653 87.4392" stroke="#FBFDF8" stroke-width="0.469348" stroke-linecap="round"/>
<path d="M42.9375 74.0704C43.0183 74.1581 42.9989 74.2471 42.9219 74.4497" stroke="#FBFDF8" stroke-width="0.469348" stroke-linecap="round"/>
<path d="M42.6318 76.9095C42.7154 77.0002 42.7463 77.0337 42.8137 77.1069" stroke="#FBFDF8" stroke-width="0.469348" stroke-linecap="round"/>
<path d="M42.9173 79.2025C43.0992 79.0349 43.0481 79.082 43.1147 79.0206" stroke="#FBFDF8" stroke-width="0.469348" stroke-linecap="round"/>
<path d="M57.7936 79C57.1584 79 56.629 80.2125 57.3389 80.2125C57.8105 80.2125 57.8966 79.9202 58.0293 79.5221C58.2296 78.9212 58.1216 78.8413 58.3662 79.3031C59.3189 81.1029 61.0011 81.4445 62.6437 80.2125" stroke="black" stroke-width="0.835583" stroke-linecap="round"/>
<path d="M49.4202 49.935C49.0934 49.0401 49.8347 47.0452 49.7335 46.0905C49.0298 39.4493 49.7267 33.8072 58.368 28.639C65.6634 24.7165 75.9877 24.7824 79.6456 29.662C80.2417 30.4571 81.6936 30.4182 82.0578 31.4158C82.3542 32.2274 81.5925 34.0071 81.7027 34.8691C82.5594 41.5684 80.1748 46.6894 72.2563 52.5277C63.837 57.0562 55.5229 56.4485 51.8528 51.6047C51.2427 50.7994 49.7908 50.9499 49.4202 49.935Z" fill="#FFE606"/>
<path d="M50.064 49.7094C49.7388 48.8187 50.5432 46.7769 50.4741 45.8162C50.0394 39.7705 50.6872 34.0423 58.9438 29.1346C66.0114 25.3346 75.949 25.8828 79.3269 30.3893C79.8459 31.0816 81.2736 30.8913 81.5895 31.7565C81.8653 32.5119 81.0432 34.2694 81.1338 35.077C81.8221 41.2147 77.3241 48.5531 70.1189 52.4271C63.0641 56.2201 55.7255 55.4491 52.3394 50.9643C51.812 50.2659 50.3836 50.5848 50.064 49.7094Z" fill="#FFFEFE"/>
<path d="M52.3877 47.8738C50.2262 41.9539 53.2395 34.6185 60.6695 30.6237C68.0995 26.6289 77.1326 27.4874 79.2942 33.4073C81.4557 39.3272 77.1848 47.3647 69.7548 51.3595C62.3248 55.3543 54.5493 53.7937 52.3877 47.8738Z" fill="#FFE860"/>
<path d="M82.0954 31.6514C82.1511 31.8039 82.1456 32.0305 82.0903 32.3215C82.0359 32.6083 81.9383 32.9334 81.832 33.2689C81.8121 33.3316 81.7919 33.3948 81.7717 33.4581C81.685 33.7292 81.5977 34.0022 81.5322 34.2531C81.4524 34.559 81.3983 34.8556 81.426 35.0906C82.1678 41.3715 79.5725 48.7209 72.2301 52.6686C68.6687 54.5834 64.5393 55.5092 60.8632 55.3933C57.1831 55.2774 53.9811 54.1188 52.2487 51.8957C52.0847 51.6852 51.8369 51.5372 51.5677 51.4172C51.3536 51.3217 51.1152 51.2397 50.881 51.1592C50.8203 51.1383 50.7598 51.1175 50.7001 51.0965C50.4064 50.9936 50.1297 50.8874 49.9058 50.7507C49.6816 50.6139 49.5235 50.4543 49.4501 50.2532C49.3847 50.0741 49.3737 49.7827 49.4038 49.4089C49.4334 49.0407 49.5005 48.615 49.5756 48.1815C49.5983 48.0505 49.6218 47.9186 49.6451 47.7876C49.6984 47.488 49.7509 47.193 49.7914 46.9244C49.8492 46.5414 49.8862 46.1917 49.8626 45.9447C49.5645 42.8204 49.8594 39.4656 51.1303 36.4085C52.3998 33.3548 54.6468 30.5885 58.2703 28.6403C61.8403 26.7208 66.1759 25.8043 70.056 25.9359C73.9412 26.0677 77.3397 27.2488 79.0649 29.4872C79.2225 29.6918 79.4797 29.8722 79.7669 30.0405C79.9797 30.1653 80.2183 30.2883 80.4573 30.4116C80.5427 30.4556 80.628 30.4997 80.7124 30.5438C81.036 30.7134 81.346 30.8858 81.5957 31.0722C81.8478 31.2605 82.0226 31.4519 82.0954 31.6514Z" stroke="black" stroke-width="0.268628"/>
<path d="M77.2393 32.4948C78.2829 31.596 76.3919 29.4304 76.3919 29.4304L80.004 33.0014L79.9181 36.9561C79.9332 37.422 79.9002 37.7777 79.9002 37.7777L79.9181 36.9561C79.8868 35.993 79.6496 34.5592 78.4893 34.8266C76.7678 35.2233 56.7662 46.4584 55.2505 48.3975C54.0881 49.704 54.9282 51.5524 54.9282 51.5524L51.4381 48.9303L51.7902 44.1943C51.7902 44.1943 51.7375 47.4168 53.3903 46.9189C55.043 46.421 77.2393 32.4948 77.2393 32.4948Z" fill="#FFFDF0"/>
<path d="M78.9109 35.0648C80.152 35.6502 80.2523 38.0711 79.702 39.7741C79.1517 41.4772 78.652 42.4383 77.8312 43.9366C77.0104 45.4349 74.91 47.9863 73.4111 48.9529C71.9121 49.9195 67.4431 52.7488 64.0217 53.0018C60.6004 53.2549 58.3116 53.3985 56.868 52.5325C55.4244 51.6665 53.4575 50.2624 54.1043 49.2904C54.7511 48.3184 75.2594 36.6817 75.2594 36.6817M55.8488 45.5626C57.7802 44.4522 61.0926 42.2857 62.5537 41.5273C62.5537 41.5273 71.5819 36.4582 72.4391 35.8129C73.2964 35.1676 77.0377 33.8164 77.6114 32.0633C78.185 30.3101 74.1335 28.6545 73.3645 28.3349C72.5956 28.0153 69.6085 27.2868 66.3913 28.4147C63.1741 29.5426 58.2049 32.2068 56.3206 34.5265C54.4363 36.8463 52.7733 39.8344 52.308 41.101C51.8427 42.3676 51.8652 44.8305 51.9873 46.1221" stroke="black" stroke-width="0.268628" stroke-linecap="round"/>
<path d="M67.4899 36.2944C67.3326 37.3943 67.4459 38.8761 66.9223 38.6773C66.3987 38.4786 66.1975 37.147 65.8632 36.4623C65.5289 35.7777 64.8213 34.9411 64.7877 34.3502C64.754 33.7592 64.8445 33.0471 65.5024 32.9857C66.1603 32.9244 67.2792 33.9188 67.4387 34.3654C67.5982 34.8119 67.6472 35.1944 67.4899 36.2944Z" fill="#FBFDF8"/>
<path d="M62.4402 46.3228C62.7302 45.2684 62.8397 43.797 63.2646 44.0738C63.6895 44.3506 63.677 45.6882 63.8702 46.4121C64.0634 47.1359 64.5581 48.0671 64.5045 48.652C64.4509 49.2369 64.2729 49.9213 63.6955 49.8788C63.118 49.8363 62.2898 48.686 62.2144 48.223C62.1389 47.7601 62.1502 47.3772 62.4402 46.3228Z" fill="#FBFDF8"/>
<path d="M70.3695 42.6424C69.8529 41.6976 68.9652 40.6776 69.3841 40.4192C69.8029 40.1607 70.6591 41 71.2355 41.252C71.8119 41.504 72.6925 41.5794 73.0397 41.9951C73.3869 42.4107 73.728 43.0136 73.3741 43.571C73.0201 44.1285 71.8096 44.2548 71.4681 44.045C71.1267 43.8351 70.886 43.5871 70.3695 42.6424Z" fill="#FBFDF8"/>
<path d="M62.4757 39.6951C63.3325 39.8804 64.4274 40.4116 64.3733 39.9003C64.3192 39.3889 63.3535 38.8255 62.8991 38.336C62.4447 37.8464 61.9441 36.9893 61.5054 36.7874C61.0667 36.5856 60.5141 36.4558 60.3477 37.0074C60.1814 37.5591 60.7258 38.8183 61.0328 39.087C61.3399 39.3556 61.6189 39.5098 62.4757 39.6951Z" fill="#FBFDF8"/>
<path d="M73.4797 39.1666C72.5228 39.1945 71.248 38.9532 71.3964 39.4216C71.5448 39.8899 72.6859 40.1919 73.2623 40.5451C73.8388 40.8984 74.5298 41.5865 75.0387 41.6729C75.5475 41.7592 76.1666 41.7509 76.2488 41.1927C76.3311 40.6345 75.522 39.5783 75.1434 39.3981C74.7648 39.2178 74.4367 39.1387 73.4797 39.1666Z" fill="#FBFDF8"/>
<path d="M71.011 48.4348C71.0083 48.3979 71.0056 48.3618 71.004 48.3398C71.0029 48.3252 71.0037 48.3364 71.0039 48.338C71.004 48.3398 71.0084 48.399 71.0105 48.4276C71.0149 48.488 71.0061 48.369 71.0027 48.3218C70.9988 48.2692 70.9974 48.2501 70.9919 48.1766" stroke="#FBFDF8" stroke-width="0.469348" stroke-linecap="round"/>
<path d="M74.0692 31.5184C74.2327 31.5063 74.1939 31.5092 74.3369 31.4986" stroke="#FBFDF8" stroke-width="0.469348" stroke-linecap="round"/>
<path d="M73.7417 30.7343C73.6257 30.7428 73.5705 30.7469 73.474 30.7541" stroke="#FBFDF8" stroke-width="0.469348" stroke-linecap="round"/>
<path d="M72.333 33.5314L72.0653 33.5512" stroke="#FBFDF8" stroke-width="0.469348" stroke-linecap="round"/>
<path d="M73.7118 33.9689C73.8055 33.962 73.9441 33.9517 73.9795 33.9491" stroke="#FBFDF8" stroke-width="0.469348" stroke-linecap="round"/>
<path d="M54.9585 42.6282C54.8252 42.638 54.746 42.6439 54.6908 42.648" stroke="#FBFDF8" stroke-width="0.469348" stroke-linecap="round"/>
<path d="M55.117 44.7718C55.1336 44.7705 55.2795 44.7597 55.3848 44.752" stroke="#FBFDF8" stroke-width="0.469348" stroke-linecap="round"/>
<path d="M58.6201 37.509L58.3524 37.5288" stroke="#FBFDF8" stroke-width="0.469348" stroke-linecap="round"/>
<path d="M63.9971 51.9258C63.8781 51.9346 63.8205 51.8641 63.7095 51.6779" stroke="#FBFDF8" stroke-width="0.469348" stroke-linecap="round"/>
<path d="M61.9624 49.9219C61.8395 49.931 61.7939 49.9344 61.6947 49.9417" stroke="#FBFDF8" stroke-width="0.469348" stroke-linecap="round"/>
<path d="M59.9885 48.7208C60.0067 48.9675 60.0016 48.8982 60.0083 48.9886" stroke="#FBFDF8" stroke-width="0.469348" stroke-linecap="round"/>
<path d="M20.5246 19.1226C20.9109 18.3273 21.4096 17.5754 21.7371 16.7565C22.2447 15.4875 22.4762 14.1368 22.9413 12.8578C23.3976 11.6028 23.782 10.469 24.3811 9.27072C24.643 8.74704 23.7161 9.13156 23.4802 9.20335C22.8394 9.39836 22.0398 9.83012 21.594 10.3317C20.9206 11.0893 20.5016 11.7764 20.2215 12.7568C20.0196 13.4632 19.8771 14.6211 20.1541 15.3334C20.4367 16.0601 20.9836 16.5557 21.2824 17.228C21.5837 17.9059 23.1776 19.6588 22.2592 20.1836C22.0183 20.3212 20.7569 20.639 21.3666 20.251C22.3219 19.643 23.2807 19.1363 24.3896 18.8953C24.9925 18.7642 25.6049 18.7677 26.2 18.6595C26.5484 18.5961 26.8843 18.2804 27.202 18.1374C27.7106 17.9085 28.3798 17.5635 28.9282 17.4638C29.2923 17.3976 29.164 17.0294 29.164 16.706C29.164 16.0257 28.1024 15.8992 28.263 16.6217C28.4124 17.2941 29.3257 18.4148 30.0818 18.1879C30.9766 17.9195 31.6564 16.6329 32.1027 15.8892C32.2965 15.5661 32.3469 16.2059 32.3469 16.4028C32.3469 17.0453 31.8667 17.8703 32.5658 18.0701C32.9081 18.1679 33.3798 17.9381 33.711 17.6069C34.2712 17.0467 34.6881 16.8491 35.4456 16.8491C35.9352 16.8491 36.1529 16.6619 36.3213 17.1859C36.378 17.3622 36.3662 18.0616 36.5908 18.0616C36.8793 18.0616 37.024 17.7585 37.3486 17.7585C37.8617 17.7585 38.3893 17.7207 38.898 17.7922C39.0606 17.8151 40.7698 18.237 40.6494 17.9101C40.4722 17.4291 40.4083 16.9042 40.38 16.3944C40.3517 15.8863 39.6147 17.4 39.5884 17.4554C39.4021 17.8487 38.8096 18.5626 39.5042 18.3311C40.2171 18.0935 43.2219 18.174 43.2597 17.4554C43.2946 16.7925 43.5629 16.1812 43.5629 15.485C43.5629 14.5638 43.7641 13.744 44.1355 12.9083C44.241 12.6708 44.1081 12.4729 44.287 12.2684C44.5582 11.9585 43.8986 12.9947 43.7145 13.363C43.3401 14.1117 42.8359 14.822 42.5356 15.6029C42.2751 16.2802 41.4624 17.8642 42.0809 18.4827C42.3781 18.7799 43.305 18.8195 43.7145 18.8195C44.5646 18.8195 44.7561 18.4787 45.3817 18.0616" stroke="black" stroke-width="0.835583" stroke-linecap="round"/>
<path d="M54.5246 71.1226C54.9109 70.3273 55.4096 69.5754 55.7371 68.7565C56.2447 67.4875 56.4762 66.1368 56.9413 64.8578C57.3976 63.6028 57.782 62.469 58.3811 61.2707C58.643 60.747 57.7161 61.1316 57.4802 61.2034C56.8394 61.3984 56.0398 61.8301 55.594 62.3317C54.9206 63.0893 54.5016 63.7764 54.2215 64.7568C54.0196 65.4632 53.8771 66.6211 54.1541 67.3334C54.4367 68.0601 54.9836 68.5557 55.2824 69.228C55.5837 69.9059 57.1776 71.6588 56.2592 72.1836C56.0183 72.3212 54.7569 72.639 55.3666 72.251C56.3219 71.643 57.2807 71.1363 58.3896 70.8953C58.9925 70.7642 59.6049 70.7677 60.2 70.6595C60.5484 70.5961 60.8843 70.2804 61.202 70.1374C61.7106 69.9085 62.3798 69.5635 62.9282 69.4638C63.2923 69.3976 63.164 69.0294 63.164 68.706C63.164 68.0257 62.1024 67.8992 62.263 68.6217C62.4124 69.2941 63.3257 70.4148 64.0818 70.1879C64.9766 69.9195 65.6564 68.6329 66.1027 67.8892C66.2965 67.5661 66.3469 68.2059 66.3469 68.4028C66.3469 69.0453 65.8667 69.8703 66.5658 70.0701C66.9081 70.1679 67.3798 69.9381 67.711 69.6069C68.2712 69.0467 68.6881 68.8491 69.4456 68.8491C69.9352 68.8491 70.1529 68.6619 70.3213 69.1859C70.378 69.3622 70.3662 70.0616 70.5908 70.0616C70.8793 70.0616 71.024 69.7585 71.3486 69.7585C71.8617 69.7585 72.3893 69.7207 72.898 69.7922C73.0606 69.8151 74.7698 70.237 74.6494 69.9101C74.4722 69.4291 74.4083 68.9042 74.38 68.3944C74.3517 67.8863 73.6147 69.4 73.5884 69.4554C73.4021 69.8487 72.8096 70.5626 73.5042 70.3311C74.2171 70.0935 77.2219 70.174 77.2597 69.4554C77.2946 68.7925 77.5629 68.1812 77.5629 67.485C77.5629 66.5638 77.7641 65.744 78.1355 64.9083C78.241 64.6708 78.1081 64.4729 78.287 64.2684C78.5582 63.9585 77.8986 64.9947 77.7145 65.363C77.3401 66.1117 76.8359 66.822 76.5356 67.6029C76.2751 68.2802 75.4624 69.8642 76.0809 70.4827C76.3781 70.7799 77.305 70.8195 77.7145 70.8195C78.5646 70.8195 78.7561 70.4787 79.3817 70.0616" stroke="black" stroke-width="0.835583" stroke-linecap="round"/>
<path d="M52.5055 16.8491C52.4609 17.6068 51.2182 18.6125 50.7709 19.1899C50.116 20.0354 49.3987 20.1852 48.5984 20.7898C47.8985 21.3187 47.7644 21.7445 47.8069 20.6383C47.844 19.674 49.1025 18.6953 49.9289 18.3647C50.6176 18.0893 51.139 17.4553 51.8992 17.4553C52.3269 17.4553 52.7047 17.6069 53.1118 17.6069C53.898 17.6069 54.5587 17.1255 55.2674 16.8154C56.0689 16.4647 57.2201 16.1426 57.8441 15.5186C58.39 14.9727 55.8824 15.5715 55.5369 15.7544C54.6188 16.2404 54.2222 17.1772 53.5665 17.91C52.8766 18.6811 55.3642 18.766 55.6548 18.7858C56.206 18.8234 59.5287 19.133 59.4776 18.2132C59.4561 17.8255 59.321 17.1522 58.8714 17.1522C58.5659 17.1522 58.1693 17.4611 58.2735 17.8258C58.4652 18.4969 59.931 18.0651 60.2355 17.8258C60.7321 17.4356 60.2267 16.6975 60.9259 16.6975C61.8477 16.6975 62.713 16.6152 63.57 16.2344C64.0087 16.0394 64.7163 15.1818 65.1614 15.1818C65.4955 15.1818 66.2982 15.5233 66.2982 15.8891C66.2982 16.6576 66.6013 17.3731 66.6013 18.1374C66.6013 18.6228 65.8372 18.5044 65.5319 18.5247C64.5549 18.5899 63.6867 18.9429 62.7448 19.1142C62.1647 19.2196 62.1105 18.7631 62.7532 18.6679C64.0185 18.4804 65.333 18.5543 66.5845 18.2805C66.9958 18.1906 67.3639 17.9848 67.7381 17.9016C67.9835 17.8471 68.4201 17.794 68.4201 17.5227C68.4201 16.9488 68.7658 16.4256 68.8664 15.8723C68.9727 15.2877 68.8261 15.8441 68.8832 16.1586C68.9706 16.639 69.3328 17.0104 69.4811 17.4553" stroke="black" stroke-width="0.835583" stroke-linecap="round"/>
<path d="M74.6344 16.546C73.9992 16.546 73.4698 17.7585 74.1797 17.7585C74.6513 17.7585 74.7374 17.4662 74.8702 17.068C75.0704 16.4672 74.9625 16.3872 75.207 16.8491C76.1598 18.6488 77.8419 18.9905 79.4845 17.7585" stroke="black" stroke-width="0.835583" stroke-linecap="round"/>
<path d="M21.7324 26.807C21.3986 27.1037 20.7616 27.2261 20.5957 27.6575C20.3829 28.2106 20.3053 28.7344 20.0147 29.2742C19.9173 29.455 20.3326 29.3837 20.4441 29.3837C21.2611 29.3837 21.9389 28.9099 22.6418 28.5585C23.4044 28.1772 24.6738 27.7895 25.2858 27.1775C25.5426 26.9208 24.7649 27.5536 24.6122 27.868C24.2539 28.6057 24.4257 29.0764 25.2185 29.1984C26.0319 29.3235 26.9883 29.4402 27.3741 28.6258C27.5707 28.2107 27.6436 27.7197 27.6436 27.2617C27.6436 26.6909 27.5967 26.0898 27.7951 25.5439C27.9724 25.0564 29.7589 25.2996 30.0771 25.2829C30.634 25.2536 31.4271 24.931 31.9632 25.0135C32.2905 25.0638 32.5573 25.6428 32.7211 25.8976C33.3204 26.8299 32.5994 27.025 31.8117 27.3459C31.3571 27.5311 30.2977 28.0708 29.7655 27.8343C29.264 27.6114 29.4102 28.3109 29.7992 28.4406C31.0613 28.8613 31.7983 28.4742 33.1 28.4742" stroke="black" stroke-width="0.835583" stroke-linecap="round"/>
<path d="M37.7983 27.4133C37.8557 26.4381 39.1268 26.2023 39.8277 25.8976C39.9206 25.8572 40.2913 25.5633 40.375 25.6618C40.6852 26.0267 40.738 26.8378 40.6444 27.2954C40.5436 27.7884 40.3047 28.1699 39.8445 28.39C39.7896 28.4163 39.0277 28.7922 39.0277 28.5416C39.0277 28.0611 40.6475 28.1196 40.9223 27.7838C41.3867 27.2162 41.8994 26.9145 42.6485 26.9586C42.997 26.9791 42.8861 27.5648 43.4821 27.5648C43.9881 27.5648 44.4762 27.2979 44.9557 27.1438C45.4743 26.9771 45.9953 26.8195 46.5051 26.6217C47.2784 26.3216 47.0842 26.3433 46.9261 25.746C46.7579 25.1107 46.4871 25.6728 46.2861 26.1249C46.1063 26.5295 46.1086 26.9721 46.1346 27.4133C46.1519 27.7088 46.2861 28.0423 46.2861 28.4069C46.2861 28.7345 45.5777 29.7446 45.9072 29.2321C46.3211 28.5882 46.7964 28.0154 47.4987 27.6827C47.9115 27.4872 48.4679 27.534 48.7954 27.2533C49.062 27.0248 49.5769 26.5722 49.6206 26.2007C49.6634 25.837 49.8091 26.7497 49.9238 26.807" stroke="black" stroke-width="0.835583" stroke-linecap="round"/>
<path d="M57 89.9521C57.0574 88.977 58.3285 88.7412 59.0293 88.4365C59.1223 88.396 59.493 88.1022 59.5767 88.2007C59.8868 88.5656 59.9397 89.3767 59.8461 89.8343C59.7453 90.3272 59.5063 90.7088 59.0462 90.9289C58.9912 90.9552 58.2294 91.3311 58.2294 91.0805C58.2294 90.5999 59.8492 90.6585 60.124 90.3226C60.5883 89.7551 61.101 89.4534 61.8502 89.4974C62.1986 89.5179 62.0877 90.1037 62.6838 90.1037C63.1898 90.1037 63.6779 89.8368 64.1574 89.6827C64.6759 89.516 65.197 89.3584 65.7067 89.1606C66.48 88.8605 66.2858 88.8822 66.1277 88.2849C65.9596 87.6496 65.6887 88.2117 65.4878 88.6638C65.308 89.0684 65.3103 89.511 65.3362 89.9521C65.3536 90.2476 65.4878 90.5812 65.4878 90.9458C65.4878 91.2734 64.7794 92.2835 65.1089 91.771C65.5228 91.1271 65.998 90.5543 66.7003 90.2216C67.1132 90.026 67.6696 90.0729 67.9971 89.7922C68.2636 89.5637 68.7786 89.1111 68.8223 88.7396C68.8651 88.3759 69.0108 89.2885 69.1254 89.3459" stroke="black" stroke-width="0.835583" stroke-linecap="round"/>
<path d="M22.0575 36.448C22.253 37.0587 22.6304 37.6322 22.6638 38.2668C22.6757 38.4922 22.7717 39.1808 22.588 39.3277C22.4479 39.4399 22.1805 39.6397 22.0912 39.7825C21.7651 40.3042 21.3823 40.5368 21.1144 39.934C20.8041 39.2358 21.1741 39.0198 21.6365 38.6036C22.061 38.2215 22.7159 37.1126 23.2701 37.0542C24.1694 36.9596 24.823 36.4021 25.2068 35.5386C25.3556 35.2037 25.3065 34.7652 25.4678 34.4102C25.6017 34.1157 25.4423 33.7694 25.5773 34.2081C25.8194 34.9952 25.6952 35.9283 25.6952 36.7511C25.6952 37.4703 26.4064 37.7953 26.7561 38.3005C26.9537 38.5859 26.9077 38.9241 26.9077 39.252C26.9077 39.8625 26.9388 39.6379 27.3961 39.3614C27.9223 39.0433 28.5244 39.0282 29.097 38.8646C29.4287 38.7698 29.7587 38.1021 29.9391 37.8458C30.1911 37.4876 30.0906 37.2926 30.0906 37.7447C30.0906 38.1432 30.0914 38.4589 30.2085 38.8394C30.4041 39.4751 30.8513 39.4196 31.1853 38.873C31.3577 38.5908 32.0442 38.281 32.0442 37.8963C32.0442 37.7327 31.6063 38.0241 31.6063 38.2668C31.6063 39.1872 32.2294 40.1264 33.122 39.3277C34.5069 38.0886 36.5272 37.9412 38.1237 37.0542" stroke="black" stroke-width="0.835583" stroke-linecap="round"/>
<path d="M64.0575 76.448C64.253 77.0587 64.6304 77.6322 64.6638 78.2668C64.6757 78.4922 64.7717 79.1808 64.588 79.3277C64.4479 79.4399 64.1805 79.6397 64.0912 79.7825C63.7651 80.3042 63.3823 80.5368 63.1144 79.934C62.8041 79.2358 63.1741 79.0198 63.6365 78.6036C64.061 78.2215 64.7159 77.1126 65.2701 77.0542C66.1694 76.9596 66.823 76.4021 67.2068 75.5386C67.3556 75.2037 67.3065 74.7652 67.4678 74.4102C67.6017 74.1157 67.4423 73.7694 67.5773 74.2081C67.8194 74.9952 67.6952 75.9283 67.6952 76.7511C67.6952 77.4703 68.4064 77.7953 68.7561 78.3005C68.9537 78.5859 68.9077 78.9241 68.9077 79.252C68.9077 79.8625 68.9388 79.6379 69.3961 79.3614C69.9223 79.0433 70.5244 79.0282 71.097 78.8646C71.4287 78.7698 71.7587 78.1021 71.9391 77.8458C72.1911 77.4876 72.0906 77.2926 72.0906 77.7447C72.0906 78.1432 72.0914 78.4589 72.2085 78.8394C72.4041 79.4751 72.8513 79.4196 73.1853 78.873C73.3577 78.5908 74.0442 78.281 74.0442 77.8963C74.0442 77.7327 73.6063 78.0241 73.6063 78.2668C73.6063 79.1872 74.2294 80.1264 75.122 79.3277C76.5069 78.0886 78.5272 77.9412 80.1237 77.0542" stroke="black" stroke-width="0.835583" stroke-linecap="round"/>
</g>
<defs>
<filter id="filter0_d_70_736" x="0" y="0" width="92.188" height="118.52" filterUnits="userSpaceOnUse" color-interpolation-filters="sRGB">
<feFlood flood-opacity="0" result="BackgroundImageFix"/>
<feColorMatrix in="SourceAlpha" type="matrix" values="0 0 0 0 0 0 0 0 0 0 0 0 0 0 0 0 0 0 127 0" result="hardAlpha"/>
<feOffset dy="4"/>
<feGaussianBlur stdDeviation="2"/>
<feComposite in2="hardAlpha" operator="out"/>
<feColorMatrix type="matrix" values="0 0 0 0 0 0 0 0 0 0 0 0 0 0 0 0 0 0 0.25 0"/>
<feBlend mode="normal" in2="BackgroundImageFix" result="effect1_dropShadow_70_736"/>
<feBlend mode="normal" in="SourceGraphic" in2="effect1_dropShadow_70_736" result="shape"/>
</filter>
</defs>
</svg>
