<svg width="46" height="40" viewBox="0 0 46 40" fill="none" xmlns="http://www.w3.org/2000/svg">
<path d="M4.11645 38.4542L0.23543 17.5937C0.113026 16.9358 0.617942 16.3283 1.28715 16.3283H44.6529C45.3416 16.3283 45.8509 16.9696 45.6949 17.6404L40.8436 38.5008C40.7309 38.9854 40.2991 39.3283 39.8016 39.3283H5.16817C4.65281 39.3283 4.21071 38.9609 4.11645 38.4542Z" fill="#FFE860"/>
<path d="M10.6976 17.9328C10.6976 17.9328 11.7674 14.1886 13.9069 8.30484C16.0465 2.42112 15.5116 2.95606 16.5814 1.88624C17.6511 0.816418 18.7209 0.816474 19.2558 1.35136C19.7907 1.88624 19.7907 5.09554 19.7907 8.83973C19.7907 12.5839 19.2558 16.3281 19.2558 16.3281M32.6279 17.9328C32.6279 17.9328 33.1627 14.1886 32.093 9.37461C31.0232 4.56066 29.9534 2.95605 28.8837 1.88624C27.8139 0.816431 26.7441 0.816474 26.2093 1.35136C25.6744 1.88624 25.6744 5.09553 25.6744 9.37461C25.6744 13.6537 25.6974 15.8087 25.6974 15.8087" stroke="black" stroke-width="0.353023"/>
<path d="M9.63043 18.3481C9.94504 17.9981 10.3836 17.9873 10.6991 18.016C11.0147 18.0447 11.2323 18.0733 11.6867 18.194C12.1412 18.3147 12.2275 18.7695 12.1721 19.1275C12.1167 19.4854 11.9755 20.4759 11.5007 20.6726C11.0258 20.8694 10.5742 20.7592 10.1628 20.6074C9.75143 20.4556 9.31582 20.0423 9.25982 19.6875C9.20381 19.3328 9.31581 18.6981 9.63043 18.3481Z" fill="#FFFDF0" stroke="black" stroke-width="0.353023"/>
<path d="M31.2702 18.3246C31.7055 18.0095 32.073 17.933 32.6278 17.933C33.1827 17.933 33.8092 18.23 34.0519 18.418C34.2946 18.606 34.4253 18.9968 34.3506 19.6501C34.2759 20.3035 34.2208 20.6144 33.6976 20.7857C33.1745 20.957 32.465 21.0317 31.737 20.845C31.0089 20.6584 30.6168 19.8929 30.6168 19.5195C30.6168 19.1462 30.8349 18.6398 31.2702 18.3246Z" fill="#FFFDF0" stroke="black" stroke-width="0.353023"/>
<path d="M11.2573 24.3175C11.2573 24.3175 15.0098 23.5147 17.1193 23.5147C19.2289 23.5147 23.8401 23.384 25.707 23.5147C27.5739 23.6454 32.7452 24.2988 32.7452 24.2988" stroke="black" stroke-width="0.373377" stroke-linecap="round"/>
<path d="M14.2813 27.6669C14.2813 27.6669 17.5077 27.3039 19.0422 27.3044C20.5767 27.3049 23.0234 27.0426 24.3814 27.1737C25.7395 27.3048 29.9116 27.6534 29.9116 27.6534" stroke="black" stroke-width="0.373377" stroke-linecap="round"/>
<path d="M16.7271 31.0228C16.7271 31.0228 19.2168 31.3919 20.2183 31.3929C21.2199 31.3938 22.5332 31.3929 23.6534 31.2435C24.7735 31.0942 26.9287 31.0139 26.9287 31.0139" stroke="black" stroke-width="0.373377" stroke-linecap="round"/>
<path d="M0.871147 17.1153C0.435598 17.9864 1.30666 18.4219 1.74221 21.9063C2.17776 25.3907 2.61331 28.8751 3.4844 32.3595C4.05026 34.6229 4.06478 36.8863 4.00547 38.1946C3.97754 38.8109 4.44003 39.3595 5.05617 39.3892C7.17633 39.4912 11.7569 39.6553 14.3731 39.3283C17.8575 38.8927 26.133 38.8927 30.0529 38.8927C33.1375 38.8927 37.9301 39.38 39.8327 39.5877C40.3163 39.6405 40.7741 39.3637 40.9364 38.9051C41.3092 37.8521 41.9495 35.8942 42.2483 34.1017C42.6838 31.4884 43.5549 28.4395 44.426 24.9552C45.2971 21.4708 46.1682 17.1153 45.2971 16.2442C44.426 15.3731 36.1506 15.8086 32.2306 15.8086C28.4358 15.8086 20.151 16.2168 19.6259 16.2429C19.6081 16.2438 19.5908 16.2442 19.573 16.2442H7.8399C7.8399 16.2442 7.8399 16.2442 7.8399 16.2442C7.83989 16.2442 1.3067 16.2442 0.871147 17.1153Z" stroke="black" stroke-width="0.353023"/>
</svg>
